<?xml version="1.0" encoding="UTF-8"?>
<svg id="Calque_1" data-name="Calque 1" xmlns="http://www.w3.org/2000/svg" xmlns:xlink="http://www.w3.org/1999/xlink" viewBox="0 0 499.49 499.49">
  <defs>
    <style>
      .cls-1 {
        fill: #335160;
      }

      .cls-2 {
        fill: #6794aa;
      }

      .cls-3 {
        fill: #608a9f;
      }

      .cls-4 {
        fill: #44403d;
      }

      .cls-5 {
        fill: #446777;
      }

      .cls-6 {
        fill: #d29f97;
      }

      .cls-7 {
        fill: #fff;
      }

      .cls-8 {
        fill: #355462;
      }

      .cls-9 {
        fill: #1d3743;
      }

      .cls-10 {
        fill: #4c7081;
      }

      .cls-11 {
        fill: #912623;
      }

      .cls-12 {
        fill: #73a5bf;
      }

      .cls-13 {
        fill: #efefee;
        opacity: .55;
      }

      .cls-14 {
        fill: #2e4a58;
      }

      .cls-15 {
        fill: #4b6f80;
      }

      .cls-16 {
        fill: #618ca2;
      }

      .cls-17 {
        fill: #c3938b;
      }

      .cls-18 {
        fill: #26414e;
      }

      .cls-19 {
        fill: #4a6f80;
      }

      .cls-20 {
        fill: #27424f;
      }

      .cls-21 {
        fill: #567d90;
      }

      .cls-22 {
        fill: #6a98b0;
      }

      .cls-23 {
        fill: #32505e;
      }

      .cls-24 {
        fill: #304d5c;
      }

      .cls-25 {
        fill: #6592a8;
      }

      .cls-26 {
        fill: #598195;
      }

      .cls-27 {
        fill: #6c9ab2;
      }

      .cls-28 {
        fill: #5e879c;
      }

      .cls-29 {
        fill: #6b99b0;
      }

      .cls-30 {
        fill: #52788a;
      }

      .cls-31 {
        fill: #6997ae;
      }

      .cls-32 {
        fill: #46697a;
      }

      .cls-33 {
        fill: #5f899e;
      }

      .cls-34 {
        fill: #6d9db5;
      }

      .cls-35 {
        fill: #4d7384;
      }

      .cls-36 {
        fill: #5a8297;
      }

      .cls-37 {
        fill: #416373;
      }

      .cls-38 {
        fill: #3b5b6b;
      }

      .cls-39 {
        fill: #557c8f;
      }

      .cls-40 {
        fill: #25404c;
      }

      .cls-41 {
        fill: #6b99b1;
      }

      .cls-42 {
        fill: #3c5c6b;
      }

      .cls-43 {
        fill: #6693a9;
      }

      .cls-44 {
        fill: #74a7c0;
      }

      .cls-45 {
        fill: #6c9bb3;
      }

      .cls-46 {
        fill: #fbd2c5;
      }

      .cls-47 {
        fill: #567e91;
      }

      .cls-48 {
        fill: #70a1ba;
      }

      .cls-49 {
        fill: #345361;
      }

      .cls-50 {
        fill: #578092;
      }

      .cls-51 {
        fill: #72a3bc;
      }

      .cls-52 {
        fill: #2d4957;
      }

      .cls-53 {
        fill: #5e889d;
      }

      .cls-54 {
        fill: #6794ab;
      }

      .cls-55 {
        fill: #466a7b;
      }

      .cls-56 {
        fill: #6692a9;
      }

      .cls-57 {
        fill: #446778;
      }

      .cls-58 {
        fill: #476a7c;
      }

      .cls-59 {
        fill: #6996ad;
      }

      .cls-60 {
        fill: #353839;
      }

      .cls-61 {
        fill: #72a3bd;
      }

      .cls-62 {
        fill: #547b8d;
      }

      .cls-63 {
        fill: #6c9bb2;
      }

      .cls-64 {
        fill: #b18a70;
      }

      .cls-65 {
        fill: #5a8296;
      }

      .cls-66 {
        fill: #6895ac;
      }

      .cls-67 {
        fill: #648fa5;
      }

      .cls-68 {
        fill: #73a5be;
      }

      .cls-69 {
        fill: #365564;
      }

      .cls-70 {
        fill: #628da3;
      }

      .cls-71 {
        fill: #4e7384;
      }

      .cls-72 {
        clip-path: url(#clippath-1);
      }

      .cls-73 {
        fill: #496d7f;
      }

      .cls-74 {
        fill: #1a1c1d;
        opacity: .4;
      }

      .cls-75 {
        opacity: .58;
      }

      .cls-76 {
        fill: #4f7586;
      }

      .cls-77 {
        fill: #2e4b59;
      }

      .cls-78 {
        fill: #d87374;
      }

      .cls-79 {
        fill: #6d9cb4;
      }

      .cls-80 {
        fill: #e9b7ac;
      }

      .cls-81 {
        fill: #3f6171;
      }

      .cls-82 {
        fill: #3f6070;
      }

      .cls-83 {
        fill: #6896ad;
      }

      .cls-84 {
        fill: #507688;
      }

      .cls-85 {
        fill: #6f9fb7;
      }

      .cls-86 {
        opacity: .3;
      }

      .cls-87 {
        fill: #598196;
      }

      .cls-88 {
        fill: #385767;
      }

      .cls-89 {
        fill: #517789;
      }

      .cls-90 {
        fill: #73a4bd;
      }

      .cls-91 {
        fill: #638fa5;
      }

      .cls-92 {
        fill: #375665;
      }

      .cls-93 {
        fill: #456879;
      }

      .cls-94 {
        fill: #618ba1;
      }

      .cls-95 {
        fill: #395968;
      }

      .cls-96 {
        fill: #2a4653;
      }

      .cls-97 {
        fill: #5b8397;
      }

      .cls-98 {
        fill: #847195;
      }

      .cls-99 {
        fill: #618ba0;
      }

      .cls-100 {
        fill: #6a98af;
      }

      .cls-101 {
        fill: #588094;
      }

      .cls-102 {
        fill: #70a0b9;
      }

      .cls-103 {
        fill: #5d869b;
      }

      .cls-104 {
        fill: #608aa0;
      }

      .cls-105 {
        fill: #5f899f;
      }

      .cls-106 {
        fill: #20170c;
      }

      .cls-107 {
        fill: #223c49;
      }

      .cls-108 {
        fill: #5b1011;
      }

      .cls-109 {
        fill: #577f92;
      }

      .cls-110 {
        fill: #486b7d;
      }

      .cls-111 {
        fill: #243e4b;
      }

      .cls-112 {
        clip-path: url(#clippath);
      }

      .cls-113 {
        fill: #588093;
      }

      .cls-114 {
        fill: #203a46;
      }

      .cls-115 {
        fill: #284350;
      }

      .cls-116 {
        fill: #436576;
      }

      .cls-117 {
        fill: #5c8599;
      }

      .cls-118 {
        fill: #628ca2;
      }

      .cls-119 {
        fill: #496e7f;
      }

      .cls-120 {
        fill: #426474;
      }

      .cls-121 {
        fill: none;
      }

      .cls-122 {
        fill: #537a8c;
      }

      .cls-123 {
        fill: #75a8c1;
      }

      .cls-124 {
        fill: #547b8e;
      }

      .cls-125 {
        fill: #6a97ae;
      }

      .cls-126 {
        fill: #6591a7;
      }

      .cls-127 {
        fill: #7cbacd;
      }

      .cls-128 {
        fill: #6490a6;
      }

      .cls-129 {
        fill: #486c7d;
      }

      .cls-130 {
        fill: #3d5e6e;
      }

      .cls-131 {
        fill: #4d7283;
      }

      .cls-132 {
        fill: #52798b;
      }

      .cls-133 {
        fill: #6793aa;
      }

      .cls-134 {
        fill: #507687;
      }

      .cls-135 {
        fill: #395867;
      }

      .cls-136 {
        fill: #2c4856;
      }

      .cls-137 {
        fill: #314f5d;
      }

      .cls-138 {
        fill: #51788a;
      }

      .cls-139 {
        fill: #71a1ba;
      }

      .cls-140 {
        fill: #5d879c;
      }

      .cls-141 {
        fill: #6e9eb6;
      }

      .cls-142 {
        fill: #74a6bf;
      }

      .cls-143 {
        fill: #3c5d6d;
      }

      .cls-144 {
        fill: #638ea4;
      }

      .cls-145 {
        fill: #416273;
      }

      .cls-146 {
        fill: #c1636d;
      }

      .cls-147 {
        fill: #213b47;
      }

      .cls-148 {
        fill: #557d8f;
      }

      .cls-149 {
        fill: #5d869a;
      }

      .cls-150 {
        fill: #5b8499;
      }

      .cls-151 {
        fill: #32505f;
      }

      .cls-152 {
        fill: #4c7182;
      }

      .cls-153 {
        fill: #2b4754;
      }

      .cls-154 {
        fill: #3e5e6e;
      }

      .cls-155 {
        fill: #2f4c5a;
      }

      .cls-156 {
        fill: #406171;
      }

      .cls-157 {
        fill: #294552;
      }

      .cls-158 {
        fill: #71a2bb;
      }

      .cls-159 {
        fill: #6b9ab1;
      }

      .cls-160 {
        fill: #6e9db5;
      }

      .cls-161 {
        fill: #6f9fb8;
      }

      .cls-162 {
        fill: #4f7486;
      }

      .cls-163 {
        fill: #1f3844;
      }

      .cls-164 {
        fill: #5c859a;
      }

      .cls-165 {
        fill: #1c3641;
      }

      .cls-166 {
        fill: #3a5a6a;
      }

      .cls-167 {
        fill: #233e4a;
      }
    </style>
    <clipPath id="clippath">
      <path class="cls-121" d="m210.72,224.95c-.63,7.6-7.4,13.24-15.13,12.6-7.73-.64-13.48-7.32-12.85-14.91.63-7.61,7.4-13.26,15.13-12.62,7.72.64,13.47,7.32,12.85,14.92Z"/>
    </clipPath>
    <clipPath id="clippath-1">
      <path class="cls-121" d="m309.5,224.17c-.63,7.6-7.4,13.25-15.13,12.6-7.73-.64-13.48-7.32-12.85-14.91.62-7.61,7.4-13.26,15.13-12.62,7.72.64,13.47,7.32,12.85,14.92Z"/>
    </clipPath>
  </defs>
  <rect class="cls-98" width="499.49" height="499.49"/>
  <path class="cls-46" d="m386.11,493.15s-.64-38.6-2.17-41.97c-2.96-13.46,2.32-19.63-18.5-32.6-.16-.08-4.72-1.53-11.54-3.76q-.08,0-.16-.08c-4.41-1.44-9.77-3.2-15.37-5.12-2.17-.72-4.33-1.52-6.57-2.24-5.54-1.94-11.04-3.95-16.11-5.88-3.51-1.33-6.84-2.63-9.68-3.81-2.43-1.05-4.54-2.03-6.23-2.92-1.77-.93-3.09-1.75-3.78-2.45-.09-.08-.24-.32-.49-.56-.16-.23-.32-.4-.48-.63-.4-2.24-6.41-12.1-8.49-22.83v-.08c-.48-2.17-.72-4.25-.8-6.41-.16-3.13-.16-6.25-.24-9.05-.08-2.89-.16-5.53-.24-7.69v-1.85c-.08-1.53-.08-2.8-.08-3.76-.08-.96-.08-1.53-.08-1.53,0,0,2.24-1.92,5.53-4.8,4.08-3.68,9.93-8.97,14.97-14.02,5.45-5.45,10.18-10.65,11.22-13.38.08-.41.16-.72.16-.96,0,0-.16,0-.4.08-2.56.4-16.34,2.8-31.16,5.12-8.81,1.36-18.02,2.73-25.55,3.68-2.96.41-5.69.64-8.01.88h-.08c-2.16.24-4.01.32-5.37.32-1.52,0-3.61-.16-6.08-.32h-.16c-2.4-.32-5.29-.64-8.41-1.04-6.89-.88-15.14-2.08-23.15-3.28-7.37-1.2-14.58-2.32-20.27-3.29-1.36-.23-2.57-.4-3.68-.64-5.44-.88-8.89-1.52-8.89-1.52,0,1.04.96,2.64,2.57,4.72,0,0,0,.08.08.08,1.21,1.6,2.81,3.45,4.72,5.53,1.85,1.92,3.85,3.93,5.93,5.93,6.33,6.16,13.22,12.25,16.58,15.14,1.28,1.12,2,1.76,2,1.76,0,0,0,.56-.08,1.53,0,.96,0,2.24-.08,3.76v1.85c0,.63,0,1.27-.08,1.92-.08,4.17-.24,9.37-.4,14.82-.08,2.16-.32,4.24-.8,6.41-2.09,10.73-8.09,20.67-8.49,22.91-.16.24-.32.4-.48.63-.24.24-.41.49-.49.56-.34.34-.9.74-1.56,1.15-1.48.94-3.65,2.06-6.37,3.34-2.36,1.05-5.14,2.18-8.15,3.36-7.11,2.78-15.62,5.81-23.73,8.57-.56.16-1.12.41-1.68.56-6.01,2.08-11.78,4.01-16.42,5.53h-.09c-6.73,2.24-11.29,3.68-11.45,3.76-20.67,12.89-15.62,19.06-18.5,32.36v.24c-.08.16-.16.48-.24.95v.09c-1.36,6.97-1.92,40.92-1.92,40.92-.03,2.06-.05,4.18-.06,6.34h279.59c0-2.16-.03-4.28-.07-6.34Z"/>
  <g class="cls-75">
    <path class="cls-6" d="m286.6,368.21c-.48-2.16-.72-4.25-.8-6.41-.24-7.21-.4-14.09-.48-18.58-12.02,5.37-24.35,8.49-36.45,8.49-.72.14-1.64.14-2.46.14s-1.74,0-2.46-.14c-12.1,0-24.44-3.13-36.45-8.49-.08,4.49-.23,11.37-.48,18.58-.08,2.16-.32,4.25-.8,6.41,11.61,9.69,27.31,19.7,37.73,19.7.64.13,1.45.12,2.19.13v.03c.09,0,.18-.02.27-.02s.18.02.27.02v-.03c.74,0,1.55,0,2.19-.13,10.41,0,26.11-10.01,37.72-19.7Z"/>
  </g>
  <g>
    <path class="cls-46" d="m349.53,224.42c2.01-11.08,3.57-19.58,4.06-21.24.23-.8.4-1.6.63-2.4.16-.96.41-1.85.56-2.72.4-1.36.64-2.73.96-4.09.08-.64.25-1.27.32-1.92.24-1.52.56-3.05.8-4.57.09-.64.16-1.36.24-2,.24-1.36.32-2.72.48-4.08.08-1.04.15-2.09.32-3.04.08-.88.08-1.77.16-2.64,1.04-20.91-3.44-42.22-17.14-61.52-16.58-23.22-35.65-47.82-77.06-51.26h-34.92c-41.41,3.44-60.47,28.03-77.05,51.26-13.7,19.31-18.19,40.61-17.14,61.52.08.88.08,1.76.16,2.64.16.95.24,2,.32,3.04.16,1.36.24,2.72.48,4.08.08.64.16,1.36.24,2,.24,1.52.56,3.04.81,4.57.08.64.23,1.27.31,1.92.32,1.36.56,2.73.96,4.09.16.88.41,1.76.56,2.72.24.8.4,1.6.64,2.4.48,1.65,2.03,10.08,4.03,21.08-11.05-5.4-26.39,2.32-24.56,22.67,1.88,20.65,26.98,32.89,35.58,34.99.85,3.74,1.57,6.51,2.09,7.84,7.53,18.98,16.66,24.67,32.68,40.13,17.47,16.74,43.25,32.44,55.99,32.36.4.08.88.08,1.36.08s.96,0,1.37-.08c12.73.08,38.52-15.62,55.98-32.36,16.02-15.46,25.16-21.15,32.68-40.13.52-1.32,1.24-4.07,2.08-7.78,8.31-1.88,33.97-14.17,35.87-35.06,1.84-20.53-13.79-28.2-24.86-22.51Z"/>
    <path class="cls-80" d="m366.32,235.81c-6.23-10.11-15.98-5.87-18.41-3.66-2.57,2.38-4.62,5.55-3.07,11.54.83,3.36,4.37,3.65,3.45,8.76-1,5.72-3.65,6.08-5.16,7.36-1.51,1.27-3.41,2.24-4.37,4.69-.92,2.4-1.09,4.97-.63,7.17.96,4.14,7.01.93,11.03-.89,2.67-1.18,11.16-8.25,13.32-10.59,5.4-6.01,8-17.6,3.84-24.38"/>
  </g>
  <path class="cls-80" d="m228.7,322.7c-.4-5.29,14.84,1.11,19.85,1.26,3.99.13,15.99-.78,17.1-1.2,8.39-3.11-.46,8.85-17.35,9.47-7.74.31-19.37-6.32-19.6-9.53Z"/>
  <g>
    <path class="cls-146" d="m278.94,315.85c-9.67-1.8-30.03-5.73-30.03-5.73-16.79,2.77-29.93,5.67-30.03,5.79-.4.04,13.41,12.38,29.8,11.54h0c16.39.84,30.66-11.54,30.26-11.6Z"/>
    <path class="cls-78" d="m258.52,306.73c-4.36-.48-7.36,2.06-9.59,1.83-2.27.21-5.25-2.31-9.61-1.83-6.21,1.32-9.17,5.25-20.44,9.17.4.76,7.62-.94,21.15-.71.19,0,3.82,2.04,8.98,2.01,3.23-.02,7.66-2.16,7.83-2.16,13.54-.21,21.82,1.64,22.2.9-14.9-4.58-14.33-7.87-20.52-9.21Z"/>
  </g>
  <path class="cls-64" d="m256.93,281.3c2.2-1.47,4.77-.78,4.77-.78,0,0-.04.06-.09.15-.52.87-3.47,5.59-5.82,5.53.06-.04-.51-.43-.66-1.57-.19-1.12.73-2.59,1.8-3.33Z"/>
  <path class="cls-80" d="m227.27,279.83c-.42-10.6,16.42-3.87,21.97-3.54,4.4.27,17.75-3.33,18.9-2.41,7.86,6.3-8.34,18.95-19.16,18.95-2.9,0-21.45-6.59-21.71-13Z"/>
  <path class="cls-17" d="m240.03,281.13c-2.2-1.47-4.77-.77-4.77-.77,0,0,.04.06.09.15.52.87,3.47,5.6,5.82,5.53-.06-.04.52-.43.66-1.57.19-1.12-.73-2.59-1.8-3.33Z"/>
  <path class="cls-60" d="m224.37,206.6s-2.57-2.57-7.29-5.7c-2.26-1.65-5.19-3.1-8.32-4.58-3.15-1.45-6.69-2.6-10.34-3.22-3.63-.83-7.38-1.03-10.94-.98-1.79.12-3.51.25-5.15.36-1.66.08-3.18.52-4.63.73-2.91.42-5.28,1.13-6.97,1.56-1.72.41-2.7.63-2.7.63,0,0,.85-.53,2.35-1.46,1.54-.81,3.63-2.39,6.53-3.39,2.81-1.23,6.27-2.33,10.11-3.06,3.87-.52,8.09-.8,12.32-.33,4.2.57,8.32,1.75,11.99,3.29,3.67,1.56,6.8,3.6,9.32,5.52,5.01,3.81,7.45,7.54,7.45,7.54l.03.05c.74,1.13.42,2.64-.71,3.38-.98.64-2.26.48-3.06-.32Z"/>
  <path class="cls-7" d="m165.44,218.67s9.37,23.32,23.92,25.6c14.55,2.28,30.06-1.05,30.06-1.05,0,0,.39-27.1-7.16-30.85-7.55-3.76-24.83-9.37-46.82,6.3Z"/>
  <g class="cls-112">
    <polygon class="cls-165" points="211.34 214.51 182.11 212.09 182.11 209.38 211.34 209.38 211.34 214.51"/>
    <polygon class="cls-165" points="211.34 214.64 182.11 212.23 182.11 212.09 211.34 214.51 211.34 214.64"/>
    <polygon class="cls-9" points="211.34 214.77 182.11 212.36 182.11 212.23 211.34 214.64 211.34 214.77"/>
    <polygon class="cls-163" points="211.34 214.91 182.11 212.5 182.11 212.36 211.34 214.77 211.34 214.91"/>
    <polygon class="cls-114" points="211.34 215.04 182.11 212.63 182.11 212.5 211.34 214.91 211.34 215.04"/>
    <polygon class="cls-147" points="211.34 215.18 182.11 212.76 182.11 212.63 211.34 215.04 211.34 215.18"/>
    <polygon class="cls-107" points="211.34 215.31 182.11 212.9 182.11 212.76 211.34 215.18 211.34 215.31"/>
    <polygon class="cls-167" points="211.34 215.45 182.11 213.04 182.11 212.9 211.34 215.31 211.34 215.45"/>
    <polygon class="cls-111" points="211.34 215.58 182.11 213.17 182.11 213.04 211.34 215.45 211.34 215.58"/>
    <polygon class="cls-40" points="211.34 215.72 182.11 213.3 182.11 213.17 211.34 215.58 211.34 215.72"/>
    <polygon class="cls-18" points="211.34 215.85 182.11 213.44 182.11 213.3 211.34 215.72 211.34 215.85"/>
    <polygon class="cls-20" points="211.34 215.99 182.11 213.57 182.11 213.44 211.34 215.85 211.34 215.99"/>
    <polygon class="cls-115" points="211.34 216.12 182.11 213.71 182.11 213.57 211.34 215.99 211.34 216.12"/>
    <polygon class="cls-157" points="211.34 216.26 182.11 213.84 182.11 213.71 211.34 216.12 211.34 216.26"/>
    <polygon class="cls-96" points="211.34 216.39 182.11 213.98 182.11 213.84 211.34 216.26 211.34 216.39"/>
    <polygon class="cls-153" points="211.34 216.53 182.11 214.11 182.11 213.98 211.34 216.39 211.34 216.53"/>
    <polygon class="cls-136" points="211.34 216.66 182.11 214.25 182.11 214.11 211.34 216.53 211.34 216.66"/>
    <polygon class="cls-52" points="211.34 216.8 182.11 214.38 182.11 214.25 211.34 216.66 211.34 216.8"/>
    <polygon class="cls-14" points="211.34 216.93 182.11 214.52 182.11 214.38 211.34 216.8 211.34 216.93"/>
    <polygon class="cls-77" points="211.34 217.06 182.11 214.65 182.11 214.52 211.34 216.93 211.34 217.06"/>
    <polygon class="cls-155" points="211.34 217.2 182.11 214.79 182.11 214.65 211.34 217.06 211.34 217.2"/>
    <polygon class="cls-24" points="211.34 217.34 182.11 214.92 182.11 214.79 211.34 217.2 211.34 217.34"/>
    <polygon class="cls-137" points="211.34 217.47 182.11 215.06 182.11 214.92 211.34 217.34 211.34 217.47"/>
    <polygon class="cls-23" points="211.34 217.6 182.11 215.19 182.11 215.06 211.34 217.47 211.34 217.6"/>
    <polygon class="cls-151" points="211.34 217.74 182.11 215.33 182.11 215.19 211.34 217.6 211.34 217.74"/>
    <polygon class="cls-1" points="211.34 217.87 182.11 215.46 182.11 215.33 211.34 217.74 211.34 217.87"/>
    <polygon class="cls-49" points="211.34 218.01 182.11 215.59 182.11 215.46 211.34 217.87 211.34 218.01"/>
    <polygon class="cls-8" points="211.34 218.14 182.11 215.73 182.11 215.59 211.34 218.01 211.34 218.14"/>
    <polygon class="cls-69" points="211.34 218.28 182.11 215.86 182.11 215.73 211.34 218.14 211.34 218.28"/>
    <polygon class="cls-69" points="211.34 218.41 182.11 216 182.11 215.86 211.34 218.28 211.34 218.41"/>
    <polygon class="cls-92" points="211.34 218.55 182.11 216.13 182.11 216 211.34 218.41 211.34 218.55"/>
    <polygon class="cls-88" points="211.34 218.68 182.11 216.27 182.11 216.13 211.34 218.55 211.34 218.68"/>
    <polygon class="cls-135" points="211.34 218.82 182.11 216.4 182.11 216.27 211.34 218.68 211.34 218.82"/>
    <polygon class="cls-95" points="211.34 218.95 182.11 216.54 182.11 216.4 211.34 218.82 211.34 218.95"/>
    <polygon class="cls-166" points="211.34 219.09 182.11 216.67 182.11 216.54 211.34 218.95 211.34 219.09"/>
    <polygon class="cls-38" points="211.34 219.22 182.11 216.81 182.11 216.67 211.34 219.09 211.34 219.22"/>
    <polygon class="cls-42" points="211.34 219.36 182.11 216.94 182.11 216.81 211.34 219.22 211.34 219.36"/>
    <polygon class="cls-143" points="211.34 219.49 182.11 217.08 182.11 216.94 211.34 219.36 211.34 219.49"/>
    <polygon class="cls-130" points="211.34 219.63 182.11 217.21 182.11 217.08 211.34 219.49 211.34 219.63"/>
    <polygon class="cls-154" points="211.34 219.76 182.11 217.35 182.11 217.21 211.34 219.63 211.34 219.76"/>
    <polygon class="cls-82" points="211.34 219.89 182.11 217.48 182.11 217.35 211.34 219.76 211.34 219.89"/>
    <polygon class="cls-81" points="211.34 220.03 182.11 217.62 182.11 217.48 211.34 219.89 211.34 220.03"/>
    <polygon class="cls-156" points="211.34 220.16 182.11 217.75 182.11 217.62 211.34 220.03 211.34 220.16"/>
    <polygon class="cls-145" points="211.34 220.3 182.11 217.89 182.11 217.75 211.34 220.16 211.34 220.3"/>
    <polygon class="cls-37" points="211.34 220.43 182.11 218.02 182.11 217.89 211.34 220.3 211.34 220.43"/>
    <polygon class="cls-120" points="211.34 220.57 182.11 218.16 182.11 218.02 211.34 220.43 211.34 220.57"/>
    <polygon class="cls-116" points="211.34 220.7 182.11 218.29 182.11 218.16 211.34 220.57 211.34 220.7"/>
    <polygon class="cls-116" points="211.34 220.84 182.11 218.42 182.11 218.29 211.34 220.7 211.34 220.84"/>
    <polygon class="cls-5" points="211.34 220.97 182.11 218.56 182.11 218.42 211.34 220.84 211.34 220.97"/>
    <polygon class="cls-57" points="211.34 221.11 182.11 218.69 182.11 218.56 211.34 220.97 211.34 221.11"/>
    <polygon class="cls-93" points="211.34 221.24 182.11 218.83 182.11 218.69 211.34 221.11 211.34 221.24"/>
    <polygon class="cls-32" points="211.34 221.38 182.11 218.96 182.11 218.83 211.34 221.24 211.34 221.38"/>
    <polygon class="cls-55" points="211.34 221.51 182.11 219.1 182.11 218.96 211.34 221.38 211.34 221.51"/>
    <polygon class="cls-58" points="211.34 221.65 182.11 219.23 182.11 219.1 211.34 221.51 211.34 221.65"/>
    <polygon class="cls-110" points="211.34 221.78 182.11 219.37 182.11 219.23 211.34 221.65 211.34 221.78"/>
    <polygon class="cls-129" points="211.34 221.92 182.11 219.5 182.11 219.37 211.34 221.78 211.34 221.92"/>
    <polygon class="cls-73" points="211.34 222.05 182.11 219.64 182.11 219.5 211.34 221.92 211.34 222.05"/>
    <polygon class="cls-119" points="211.34 222.19 182.11 219.77 182.11 219.64 211.34 222.05 211.34 222.19"/>
    <polygon class="cls-19" points="211.34 222.32 182.11 219.91 182.11 219.77 211.34 222.19 211.34 222.32"/>
    <polygon class="cls-15" points="211.34 222.45 182.11 220.04 182.11 219.91 211.34 222.32 211.34 222.45"/>
    <polygon class="cls-10" points="211.34 222.59 182.11 220.18 182.11 220.04 211.34 222.45 211.34 222.59"/>
    <polygon class="cls-152" points="211.34 222.72 182.11 220.31 182.11 220.18 211.34 222.59 211.34 222.72"/>
    <polygon class="cls-131" points="211.34 222.86 182.11 220.44 182.11 220.31 211.34 222.72 211.34 222.86"/>
    <polygon class="cls-35" points="211.34 222.99 182.11 220.58 182.11 220.44 211.34 222.86 211.34 222.99"/>
    <polygon class="cls-71" points="211.34 223.13 182.11 220.71 182.11 220.58 211.34 222.99 211.34 223.13"/>
    <polygon class="cls-162" points="211.34 223.26 182.11 220.85 182.11 220.71 211.34 223.13 211.34 223.26"/>
    <polygon class="cls-76" points="211.34 223.4 182.11 220.98 182.11 220.85 211.34 223.26 211.34 223.4"/>
    <polygon class="cls-134" points="211.34 223.53 182.11 221.12 182.11 220.98 211.34 223.4 211.34 223.53"/>
    <polygon class="cls-84" points="211.34 223.67 182.11 221.25 182.11 221.12 211.34 223.53 211.34 223.67"/>
    <polygon class="cls-89" points="211.34 223.8 182.11 221.39 182.11 221.25 211.34 223.67 211.34 223.8"/>
    <polygon class="cls-138" points="211.34 223.94 182.11 221.52 182.11 221.39 211.34 223.8 211.34 223.94"/>
    <polygon class="cls-30" points="211.34 224.07 182.11 221.66 182.11 221.52 211.34 223.94 211.34 224.07"/>
    <polygon class="cls-132" points="211.34 224.21 182.11 221.79 182.11 221.66 211.34 224.07 211.34 224.21"/>
    <polygon class="cls-122" points="211.34 224.34 182.11 221.93 182.11 221.79 211.34 224.21 211.34 224.34"/>
    <polygon class="cls-62" points="211.34 224.48 182.11 222.06 182.11 221.93 211.34 224.34 211.34 224.48"/>
    <polygon class="cls-124" points="211.34 224.61 182.11 222.2 182.11 222.06 211.34 224.48 211.34 224.61"/>
    <polygon class="cls-39" points="211.34 224.75 182.11 222.33 182.11 222.2 211.34 224.61 211.34 224.75"/>
    <polygon class="cls-148" points="211.34 224.88 182.11 222.47 182.11 222.33 211.34 224.75 211.34 224.88"/>
    <polygon class="cls-21" points="211.34 225.01 182.11 222.6 182.11 222.47 211.34 224.88 211.34 225.01"/>
    <polygon class="cls-47" points="211.34 225.15 182.11 222.74 182.11 222.6 211.34 225.01 211.34 225.15"/>
    <polygon class="cls-109" points="211.34 225.28 182.11 222.87 182.11 222.74 211.34 225.15 211.34 225.28"/>
    <polygon class="cls-50" points="211.34 225.42 182.11 223.01 182.11 222.87 211.34 225.28 211.34 225.42"/>
    <polygon class="cls-113" points="211.34 225.55 182.11 223.14 182.11 223.01 211.34 225.42 211.34 225.55"/>
    <polygon class="cls-101" points="211.34 225.69 182.11 223.28 182.11 223.14 211.34 225.55 211.34 225.69"/>
    <polygon class="cls-26" points="211.34 225.82 182.11 223.41 182.11 223.28 211.34 225.69 211.34 225.82"/>
    <polygon class="cls-87" points="211.34 225.96 182.11 223.54 182.11 223.41 211.34 225.82 211.34 225.96"/>
    <polygon class="cls-65" points="211.34 226.09 182.11 223.68 182.11 223.54 211.34 225.96 211.34 226.09"/>
    <polygon class="cls-36" points="211.34 226.23 182.11 223.81 182.11 223.68 211.34 226.09 211.34 226.23"/>
    <polygon class="cls-97" points="211.34 226.36 182.11 223.95 182.11 223.81 211.34 226.23 211.34 226.36"/>
    <polygon class="cls-150" points="211.34 226.5 182.11 224.08 182.11 223.95 211.34 226.36 211.34 226.5"/>
    <polygon class="cls-117" points="211.34 226.63 182.11 224.22 182.11 224.08 211.34 226.5 211.34 226.63"/>
    <polygon class="cls-164" points="211.34 226.77 182.11 224.35 182.11 224.22 211.34 226.63 211.34 226.77"/>
    <polygon class="cls-149" points="211.34 226.9 182.11 224.49 182.11 224.35 211.34 226.77 211.34 226.9"/>
    <polygon class="cls-103" points="211.34 227.04 182.11 224.62 182.11 224.49 211.34 226.9 211.34 227.04"/>
    <polygon class="cls-140" points="211.34 227.17 182.11 224.76 182.11 224.62 211.34 227.04 211.34 227.17"/>
    <polygon class="cls-28" points="211.34 227.3 182.11 224.89 182.11 224.76 211.34 227.17 211.34 227.3"/>
    <polygon class="cls-53" points="211.34 227.44 182.11 225.03 182.11 224.89 211.34 227.3 211.34 227.44"/>
    <polygon class="cls-33" points="211.34 227.58 182.11 225.16 182.11 225.03 211.34 227.44 211.34 227.58"/>
    <polygon class="cls-105" points="211.34 227.71 182.11 225.3 182.11 225.16 211.34 227.58 211.34 227.71"/>
    <polygon class="cls-3" points="211.34 227.84 182.11 225.43 182.11 225.3 211.34 227.71 211.34 227.84"/>
    <polygon class="cls-104" points="211.34 227.98 182.11 225.57 182.11 225.43 211.34 227.84 211.34 227.98"/>
    <polygon class="cls-99" points="211.34 228.11 182.11 225.7 182.11 225.57 211.34 227.98 211.34 228.11"/>
    <polygon class="cls-94" points="211.34 228.25 182.11 225.84 182.11 225.7 211.34 228.11 211.34 228.25"/>
    <polygon class="cls-16" points="211.34 228.38 182.11 225.97 182.11 225.84 211.34 228.25 211.34 228.38"/>
    <polygon class="cls-118" points="211.34 228.52 182.11 226.1 182.11 225.97 211.34 228.38 211.34 228.52"/>
    <polygon class="cls-70" points="211.34 228.65 182.11 226.24 182.11 226.1 211.34 228.52 211.34 228.65"/>
    <polygon class="cls-70" points="211.34 228.79 182.11 226.37 182.11 226.24 211.34 228.65 211.34 228.79"/>
    <polygon class="cls-144" points="211.34 228.92 182.11 226.51 182.11 226.37 211.34 228.79 211.34 228.92"/>
    <polygon class="cls-91" points="211.34 229.06 182.11 226.64 182.11 226.51 211.34 228.92 211.34 229.06"/>
    <polygon class="cls-67" points="211.34 229.19 182.11 226.78 182.11 226.64 211.34 229.06 211.34 229.19"/>
    <polygon class="cls-128" points="211.34 229.33 182.11 226.91 182.11 226.78 211.34 229.19 211.34 229.33"/>
    <polygon class="cls-128" points="211.34 229.46 182.11 227.05 182.11 226.91 211.34 229.33 211.34 229.46"/>
    <polygon class="cls-126" points="211.34 229.6 182.11 227.18 182.11 227.05 211.34 229.46 211.34 229.6"/>
    <polygon class="cls-126" points="211.34 229.73 182.11 227.32 182.11 227.18 211.34 229.6 211.34 229.73"/>
    <polygon class="cls-25" points="211.34 229.87 182.11 227.45 182.11 227.32 211.34 229.73 211.34 229.87"/>
    <polygon class="cls-56" points="211.34 230 182.11 227.59 182.11 227.45 211.34 229.87 211.34 230"/>
    <polygon class="cls-56" points="211.34 230.13 182.11 227.72 182.11 227.59 211.34 230 211.34 230.13"/>
    <polygon class="cls-43" points="211.34 230.27 182.11 227.86 182.11 227.72 211.34 230.13 211.34 230.27"/>
    <polygon class="cls-133" points="211.34 230.4 182.11 227.99 182.11 227.86 211.34 230.27 211.34 230.4"/>
    <polygon class="cls-2" points="211.34 230.54 182.11 228.13 182.11 227.99 211.34 230.4 211.34 230.54"/>
    <polygon class="cls-54" points="211.34 230.68 182.11 228.26 182.11 228.13 211.34 230.54 211.34 230.68"/>
    <polygon class="cls-66" points="211.34 230.81 182.11 228.39 182.11 228.26 211.34 230.68 211.34 230.81"/>
    <polygon class="cls-66" points="211.34 230.94 182.11 228.53 182.11 228.39 211.34 230.81 211.34 230.94"/>
    <polygon class="cls-83" points="211.34 231.08 182.11 228.66 182.11 228.53 211.34 230.94 211.34 231.08"/>
    <polygon class="cls-83" points="211.34 231.21 182.11 228.8 182.11 228.66 211.34 231.08 211.34 231.21"/>
    <polygon class="cls-59" points="211.34 231.35 182.11 228.93 182.11 228.8 211.34 231.21 211.34 231.35"/>
    <polygon class="cls-31" points="211.34 231.48 182.11 229.07 182.11 228.93 211.34 231.35 211.34 231.48"/>
    <polygon class="cls-125" points="211.34 231.62 182.11 229.2 182.11 229.07 211.34 231.48 211.34 231.62"/>
    <polygon class="cls-100" points="211.34 231.75 182.11 229.34 182.11 229.2 211.34 231.62 211.34 231.75"/>
    <polygon class="cls-100" points="211.34 231.89 182.11 229.47 182.11 229.34 211.34 231.75 211.34 231.89"/>
    <polygon class="cls-22" points="211.34 232.02 182.11 229.61 182.11 229.47 211.34 231.89 211.34 232.02"/>
    <polygon class="cls-29" points="211.34 232.16 182.11 229.74 182.11 229.61 211.34 232.02 211.34 232.16"/>
    <polygon class="cls-41" points="211.34 232.29 182.11 229.88 182.11 229.74 211.34 232.16 211.34 232.29"/>
    <polygon class="cls-41" points="211.34 232.43 182.11 230.01 182.11 229.88 211.34 232.29 211.34 232.43"/>
    <polygon class="cls-159" points="211.34 232.56 182.11 230.15 182.11 230.01 211.34 232.43 211.34 232.56"/>
    <polygon class="cls-27" points="211.34 232.7 182.11 230.28 182.11 230.15 211.34 232.56 211.34 232.7"/>
    <polygon class="cls-63" points="211.34 232.83 182.11 230.42 182.11 230.28 211.34 232.7 211.34 232.83"/>
    <polygon class="cls-63" points="211.34 232.96 182.11 230.55 182.11 230.42 211.34 232.83 211.34 232.96"/>
    <polygon class="cls-45" points="211.34 233.1 182.11 230.69 182.11 230.55 211.34 232.96 211.34 233.1"/>
    <polygon class="cls-79" points="211.34 233.23 182.11 230.82 182.11 230.69 211.34 233.1 211.34 233.23"/>
    <polygon class="cls-79" points="211.34 233.37 182.11 230.96 182.11 230.82 211.34 233.23 211.34 233.37"/>
    <polygon class="cls-79" points="211.34 233.5 182.11 231.09 182.11 230.96 211.34 233.37 211.34 233.5"/>
    <polygon class="cls-34" points="211.34 233.64 182.11 231.23 182.11 231.09 211.34 233.5 211.34 233.64"/>
    <polygon class="cls-34" points="211.34 233.77 182.11 231.36 182.11 231.23 211.34 233.64 211.34 233.77"/>
    <polygon class="cls-160" points="211.34 233.91 182.11 231.49 182.11 231.36 211.34 233.77 211.34 233.91"/>
    <polygon class="cls-141" points="211.34 234.04 182.11 231.63 182.11 231.49 211.34 233.91 211.34 234.04"/>
    <polygon class="cls-141" points="211.34 234.18 182.11 231.76 182.11 231.63 211.34 234.04 211.34 234.18"/>
    <polygon class="cls-141" points="211.34 234.31 182.11 231.9 182.11 231.76 211.34 234.18 211.34 234.31"/>
    <polygon class="cls-141" points="211.34 234.45 182.11 232.03 182.11 231.9 211.34 234.31 211.34 234.45"/>
    <polygon class="cls-85" points="211.34 234.58 182.11 232.17 182.11 232.03 211.34 234.45 211.34 234.58"/>
    <polygon class="cls-85" points="211.34 234.72 182.11 232.3 182.11 232.17 211.34 234.58 211.34 234.72"/>
    <polygon class="cls-85" points="211.34 234.85 182.11 232.44 182.11 232.3 211.34 234.72 211.34 234.85"/>
    <polygon class="cls-161" points="211.34 234.99 182.11 232.57 182.11 232.44 211.34 234.85 211.34 234.99"/>
    <polygon class="cls-161" points="211.34 235.12 182.11 232.71 182.11 232.57 211.34 234.99 211.34 235.12"/>
    <polygon class="cls-102" points="211.34 235.25 182.11 232.84 182.11 232.71 211.34 235.12 211.34 235.25"/>
    <polygon class="cls-102" points="211.34 235.39 182.11 232.98 182.11 232.84 211.34 235.25 211.34 235.39"/>
    <polygon class="cls-102" points="211.34 235.53 182.11 233.11 182.11 232.98 211.34 235.39 211.34 235.53"/>
    <polygon class="cls-102" points="211.34 235.66 182.11 233.25 182.11 233.11 211.34 235.53 211.34 235.66"/>
    <polygon class="cls-48" points="211.34 235.79 182.11 233.38 182.11 233.25 211.34 235.66 211.34 235.79"/>
    <polygon class="cls-48" points="211.34 235.93 182.11 233.52 182.11 233.38 211.34 235.79 211.34 235.93"/>
    <polygon class="cls-139" points="211.34 236.06 182.11 233.65 182.11 233.52 211.34 235.93 211.34 236.06"/>
    <polygon class="cls-139" points="211.34 236.2 182.11 233.78 182.11 233.65 211.34 236.06 211.34 236.2"/>
    <polygon class="cls-158" points="211.34 236.33 182.11 233.92 182.11 233.78 211.34 236.2 211.34 236.33"/>
    <polygon class="cls-158" points="211.34 236.47 182.11 234.05 182.11 233.92 211.34 236.33 211.34 236.47"/>
    <polygon class="cls-158" points="211.34 236.6 182.11 234.19 182.11 234.05 211.34 236.47 211.34 236.6"/>
    <polygon class="cls-158" points="211.34 236.74 182.11 234.32 182.11 234.19 211.34 236.6 211.34 236.74"/>
    <polygon class="cls-51" points="211.34 236.87 182.11 234.46 182.11 234.32 211.34 236.74 211.34 236.87"/>
    <polygon class="cls-51" points="211.34 237.01 182.11 234.59 182.11 234.46 211.34 236.87 211.34 237.01"/>
    <polygon class="cls-51" points="211.34 237.14 182.11 234.73 182.11 234.59 211.34 237.01 211.34 237.14"/>
    <polygon class="cls-61" points="211.34 237.28 182.11 234.86 182.11 234.73 211.34 237.14 211.34 237.28"/>
    <polygon class="cls-61" points="211.34 237.41 182.11 235 182.11 234.86 211.34 237.28 211.34 237.41"/>
    <polygon class="cls-61" points="211.34 237.55 182.11 235.13 182.11 235 211.34 237.41 211.34 237.55"/>
    <polygon class="cls-90" points="211.34 237.68 182.11 235.27 182.11 235.13 211.34 237.55 211.34 237.68"/>
    <polygon class="cls-90" points="211.34 237.82 182.11 235.4 182.11 235.27 211.34 237.68 211.34 237.82"/>
    <polygon class="cls-68" points="211.34 237.95 182.11 235.54 182.11 235.4 211.34 237.82 211.34 237.95"/>
    <polygon class="cls-68" points="211.34 238.08 182.11 235.67 182.11 235.54 211.34 237.95 211.34 238.08"/>
    <polygon class="cls-68" points="210.99 238.19 182.11 235.81 182.11 235.67 211.34 238.08 211.34 238.19 210.99 238.19"/>
    <polygon class="cls-12" points="209.35 238.19 182.11 235.94 182.11 235.81 210.99 238.19 209.35 238.19"/>
    <polygon class="cls-12" points="207.72 238.19 182.11 236.08 182.11 235.94 209.35 238.19 207.72 238.19"/>
    <polygon class="cls-12" points="206.09 238.19 182.11 236.21 182.11 236.08 207.72 238.19 206.09 238.19"/>
    <polygon class="cls-12" points="204.46 238.19 182.11 236.35 182.11 236.21 206.09 238.19 204.46 238.19"/>
    <polygon class="cls-142" points="202.83 238.19 182.11 236.48 182.11 236.35 204.46 238.19 202.83 238.19"/>
    <polygon class="cls-142" points="201.2 238.19 182.11 236.61 182.11 236.48 202.83 238.19 201.2 238.19"/>
    <polygon class="cls-142" points="199.56 238.19 182.11 236.75 182.11 236.61 201.2 238.19 199.56 238.19"/>
    <polygon class="cls-142" points="197.93 238.19 182.11 236.88 182.11 236.75 199.56 238.19 197.93 238.19"/>
    <polygon class="cls-44" points="196.3 238.19 182.11 237.02 182.11 236.88 197.93 238.19 196.3 238.19"/>
    <polygon class="cls-44" points="194.67 238.19 182.11 237.15 182.11 237.02 196.3 238.19 194.67 238.19"/>
    <polygon class="cls-44" points="193.04 238.19 182.11 237.29 182.11 237.15 194.67 238.19 193.04 238.19"/>
    <polygon class="cls-44" points="191.41 238.19 182.11 237.42 182.11 237.29 193.04 238.19 191.41 238.19"/>
    <polygon class="cls-123" points="189.77 238.19 182.11 237.56 182.11 237.42 191.41 238.19 189.77 238.19"/>
    <polygon class="cls-123" points="188.14 238.19 182.11 237.69 182.11 237.56 189.77 238.19 188.14 238.19"/>
    <polygon class="cls-123" points="186.51 238.19 182.11 237.83 182.11 237.69 188.14 238.19 186.51 238.19"/>
    <polygon class="cls-123" points="184.88 238.19 182.11 237.96 182.11 237.83 186.51 238.19 184.88 238.19"/>
    <polygon class="cls-123" points="183.25 238.19 182.11 238.1 182.11 237.96 184.88 238.19 183.25 238.19"/>
    <polygon class="cls-123" points="182.11 238.1 183.25 238.19 182.11 238.19 182.11 238.1"/>
  </g>
  <path class="cls-127" d="m196.06,233.23c-4.12-.34-7.29-4.47-6.91-9.01.37-4.54,4.17-8.09,8.29-7.75,4.12.34,7.28,4.46,6.92,9-.38,4.54-4.18,8.1-8.3,7.76Z"/>
  <path class="cls-106" d="m196.42,231.59c-2.87-.24-5.85-3.37-5.53-7.22.32-3.86,3.77-6.47,6.64-6.24,2.87.24,5.84,3.38,5.52,7.23-.32,3.85-3.77,6.46-6.63,6.22Z"/>
  <g class="cls-86">
    <path class="cls-4" d="m219.44,243.15s-.33.06-1.06.24c-.52-8.33-2.14-19.8-6.86-22.11-7.02-3.55-22.75-8.71-42.97,3.68-2.03-3.63-3.09-6.37-3.09-6.37,22.03-15.7,39.32-10.1,46.82-6.33,7.56,3.76,7.17,30.89,7.17,30.89Z"/>
  </g>
  <path class="cls-7" d="m194.1,222.09c-.12,1.39-1.56,2.41-3.21,2.27-1.65-.14-2.9-1.38-2.78-2.77.12-1.4,1.55-2.42,3.2-2.28,1.66.13,2.9,1.38,2.79,2.77Z"/>
  <path class="cls-7" d="m203.35,230.14c-.06.69-.78,1.2-1.6,1.13-.83-.06-1.45-.69-1.4-1.38.06-.69.78-1.2,1.6-1.13.83.06,1.46.69,1.4,1.38Z"/>
  <path class="cls-60" d="m264.06,203.49s2.44-3.73,7.44-7.54c2.51-1.92,5.65-3.96,9.32-5.52,3.67-1.53,7.79-2.71,11.99-3.29,4.23-.47,8.45-.19,12.32.33,3.85.73,7.3,1.83,10.11,3.06,2.9.99,4.99,2.57,6.53,3.39,1.49.93,2.35,1.46,2.35,1.46,0,0-.98-.23-2.7-.63-1.69-.42-4.06-1.13-6.97-1.56-1.45-.21-2.97-.65-4.63-.73-1.64-.11-3.36-.23-5.15-.36-3.56-.05-7.31.16-10.94.98-3.65.63-7.2,1.78-10.34,3.22-3.12,1.49-6.05,2.93-8.32,4.58-4.72,3.13-7.28,5.7-7.29,5.7-.95.95-2.5.95-3.45,0-.83-.83-.94-2.11-.32-3.06l.04-.05Z"/>
  <path class="cls-7" d="m326.71,218.67s-9.37,23.32-23.92,25.6c-14.54,2.28-30.05-1.05-30.05-1.05,0,0-.39-27.1,7.16-30.85,7.56-3.76,24.83-9.37,46.82,6.3Z"/>
  <g class="cls-86">
    <path class="cls-4" d="m272.71,243.15s.33.06,1.06.24c.52-8.33,2.15-19.8,6.86-22.11,7.02-3.55,22.75-8.71,42.98,3.68,2.03-3.63,3.09-6.37,3.09-6.37-22.03-15.7-39.33-10.1-46.81-6.33-7.58,3.76-7.18,30.89-7.18,30.89Z"/>
  </g>
  <g class="cls-72">
    <polygon class="cls-165" points="310.13 213.73 280.9 211.32 280.9 208.61 310.13 208.61 310.13 213.73"/>
    <polygon class="cls-165" points="310.13 213.86 280.9 211.45 280.9 211.32 310.13 213.73 310.13 213.86"/>
    <polygon class="cls-9" points="310.13 214 280.9 211.59 280.9 211.45 310.13 213.86 310.13 214"/>
    <polygon class="cls-163" points="310.13 214.13 280.9 211.72 280.9 211.59 310.13 214 310.13 214.13"/>
    <polygon class="cls-114" points="310.13 214.27 280.9 211.85 280.9 211.72 310.13 214.13 310.13 214.27"/>
    <polygon class="cls-147" points="310.13 214.4 280.9 211.99 280.9 211.85 310.13 214.27 310.13 214.4"/>
    <polygon class="cls-107" points="310.13 214.54 280.9 212.12 280.9 211.99 310.13 214.4 310.13 214.54"/>
    <polygon class="cls-167" points="310.13 214.67 280.9 212.26 280.9 212.12 310.13 214.54 310.13 214.67"/>
    <polygon class="cls-111" points="310.13 214.81 280.9 212.39 280.9 212.26 310.13 214.67 310.13 214.81"/>
    <polygon class="cls-40" points="310.13 214.94 280.9 212.53 280.9 212.39 310.13 214.81 310.13 214.94"/>
    <polygon class="cls-18" points="310.13 215.08 280.9 212.66 280.9 212.53 310.13 214.94 310.13 215.08"/>
    <polygon class="cls-20" points="310.13 215.21 280.9 212.8 280.9 212.66 310.13 215.08 310.13 215.21"/>
    <polygon class="cls-115" points="310.13 215.35 280.9 212.93 280.9 212.8 310.13 215.21 310.13 215.35"/>
    <polygon class="cls-157" points="310.13 215.48 280.9 213.07 280.9 212.93 310.13 215.35 310.13 215.48"/>
    <polygon class="cls-96" points="310.13 215.62 280.9 213.2 280.9 213.07 310.13 215.48 310.13 215.62"/>
    <polygon class="cls-153" points="310.13 215.75 280.9 213.34 280.9 213.2 310.13 215.62 310.13 215.75"/>
    <polygon class="cls-136" points="310.13 215.89 280.9 213.47 280.9 213.34 310.13 215.75 310.13 215.89"/>
    <polygon class="cls-52" points="310.13 216.02 280.9 213.61 280.9 213.47 310.13 215.89 310.13 216.02"/>
    <polygon class="cls-14" points="310.13 216.15 280.9 213.74 280.9 213.61 310.13 216.02 310.13 216.15"/>
    <polygon class="cls-77" points="310.13 216.29 280.9 213.88 280.9 213.74 310.13 216.15 310.13 216.29"/>
    <polygon class="cls-155" points="310.13 216.42 280.9 214.01 280.9 213.88 310.13 216.29 310.13 216.42"/>
    <polygon class="cls-24" points="310.13 216.56 280.9 214.15 280.9 214.01 310.13 216.42 310.13 216.56"/>
    <polygon class="cls-137" points="310.13 216.69 280.9 214.28 280.9 214.15 310.13 216.56 310.13 216.69"/>
    <polygon class="cls-23" points="310.13 216.83 280.9 214.42 280.9 214.28 310.13 216.69 310.13 216.83"/>
    <polygon class="cls-151" points="310.13 216.96 280.9 214.55 280.9 214.42 310.13 216.83 310.13 216.96"/>
    <polygon class="cls-1" points="310.13 217.1 280.9 214.68 280.9 214.55 310.13 216.96 310.13 217.1"/>
    <polygon class="cls-49" points="310.13 217.23 280.9 214.82 280.9 214.68 310.13 217.1 310.13 217.23"/>
    <polygon class="cls-8" points="310.13 217.37 280.9 214.95 280.9 214.82 310.13 217.23 310.13 217.37"/>
    <polygon class="cls-69" points="310.13 217.5 280.9 215.09 280.9 214.95 310.13 217.37 310.13 217.5"/>
    <polygon class="cls-69" points="310.13 217.64 280.9 215.22 280.9 215.09 310.13 217.5 310.13 217.64"/>
    <polygon class="cls-92" points="310.13 217.77 280.9 215.36 280.9 215.22 310.13 217.64 310.13 217.77"/>
    <polygon class="cls-88" points="310.13 217.91 280.9 215.49 280.9 215.36 310.13 217.77 310.13 217.91"/>
    <polygon class="cls-135" points="310.13 218.04 280.9 215.63 280.9 215.49 310.13 217.91 310.13 218.04"/>
    <polygon class="cls-95" points="310.13 218.18 280.9 215.76 280.9 215.63 310.13 218.04 310.13 218.18"/>
    <polygon class="cls-166" points="310.13 218.31 280.9 215.9 280.9 215.76 310.13 218.18 310.13 218.31"/>
    <polygon class="cls-38" points="310.13 218.44 280.9 216.03 280.9 215.9 310.13 218.31 310.13 218.44"/>
    <polygon class="cls-42" points="310.13 218.58 280.9 216.17 280.9 216.03 310.13 218.44 310.13 218.58"/>
    <polygon class="cls-143" points="310.13 218.71 280.9 216.3 280.9 216.17 310.13 218.58 310.13 218.71"/>
    <polygon class="cls-130" points="310.13 218.85 280.9 216.44 280.9 216.3 310.13 218.71 310.13 218.85"/>
    <polygon class="cls-154" points="310.13 218.98 280.9 216.57 280.9 216.44 310.13 218.85 310.13 218.98"/>
    <polygon class="cls-82" points="310.13 219.12 280.9 216.71 280.9 216.57 310.13 218.98 310.13 219.12"/>
    <polygon class="cls-81" points="310.13 219.25 280.9 216.84 280.9 216.71 310.13 219.12 310.13 219.25"/>
    <polygon class="cls-156" points="310.13 219.39 280.9 216.97 280.9 216.84 310.13 219.25 310.13 219.39"/>
    <polygon class="cls-145" points="310.13 219.52 280.9 217.11 280.9 216.97 310.13 219.39 310.13 219.52"/>
    <polygon class="cls-37" points="310.13 219.66 280.9 217.24 280.9 217.11 310.13 219.52 310.13 219.66"/>
    <polygon class="cls-120" points="310.13 219.79 280.9 217.38 280.9 217.24 310.13 219.66 310.13 219.79"/>
    <polygon class="cls-116" points="310.13 219.93 280.9 217.51 280.9 217.38 310.13 219.79 310.13 219.93"/>
    <polygon class="cls-116" points="310.13 220.06 280.9 217.65 280.9 217.51 310.13 219.93 310.13 220.06"/>
    <polygon class="cls-5" points="310.13 220.2 280.9 217.78 280.9 217.65 310.13 220.06 310.13 220.2"/>
    <polygon class="cls-57" points="310.13 220.33 280.9 217.92 280.9 217.78 310.13 220.2 310.13 220.33"/>
    <polygon class="cls-93" points="310.13 220.47 280.9 218.05 280.9 217.92 310.13 220.33 310.13 220.47"/>
    <polygon class="cls-32" points="310.13 220.6 280.9 218.19 280.9 218.05 310.13 220.47 310.13 220.6"/>
    <polygon class="cls-55" points="310.13 220.74 280.9 218.32 280.9 218.19 310.13 220.6 310.13 220.74"/>
    <polygon class="cls-58" points="310.13 220.87 280.9 218.46 280.9 218.32 310.13 220.74 310.13 220.87"/>
    <polygon class="cls-110" points="310.13 221.01 280.9 218.59 280.9 218.46 310.13 220.87 310.13 221.01"/>
    <polygon class="cls-129" points="310.13 221.14 280.9 218.73 280.9 218.59 310.13 221.01 310.13 221.14"/>
    <polygon class="cls-73" points="310.13 221.27 280.9 218.86 280.9 218.73 310.13 221.14 310.13 221.27"/>
    <polygon class="cls-119" points="310.13 221.41 280.9 219 280.9 218.86 310.13 221.27 310.13 221.41"/>
    <polygon class="cls-19" points="310.13 221.54 280.9 219.13 280.9 219 310.13 221.41 310.13 221.54"/>
    <polygon class="cls-15" points="310.13 221.68 280.9 219.27 280.9 219.13 310.13 221.54 310.13 221.68"/>
    <polygon class="cls-10" points="310.13 221.81 280.9 219.4 280.9 219.27 310.13 221.68 310.13 221.81"/>
    <polygon class="cls-152" points="310.13 221.95 280.9 219.53 280.9 219.4 310.13 221.81 310.13 221.95"/>
    <polygon class="cls-131" points="310.13 222.08 280.9 219.67 280.9 219.53 310.13 221.95 310.13 222.08"/>
    <polygon class="cls-35" points="310.13 222.22 280.9 219.8 280.9 219.67 310.13 222.08 310.13 222.22"/>
    <polygon class="cls-71" points="310.13 222.35 280.9 219.94 280.9 219.8 310.13 222.22 310.13 222.35"/>
    <polygon class="cls-162" points="310.13 222.49 280.9 220.07 280.9 219.94 310.13 222.35 310.13 222.49"/>
    <polygon class="cls-76" points="310.13 222.62 280.9 220.21 280.9 220.07 310.13 222.49 310.13 222.62"/>
    <polygon class="cls-134" points="310.13 222.76 280.9 220.34 280.9 220.21 310.13 222.62 310.13 222.76"/>
    <polygon class="cls-84" points="310.13 222.89 280.9 220.48 280.9 220.34 310.13 222.76 310.13 222.89"/>
    <polygon class="cls-89" points="310.13 223.03 280.9 220.61 280.9 220.48 310.13 222.89 310.13 223.03"/>
    <polygon class="cls-138" points="310.13 223.16 280.9 220.75 280.9 220.61 310.13 223.03 310.13 223.16"/>
    <polygon class="cls-30" points="310.13 223.3 280.9 220.88 280.9 220.75 310.13 223.16 310.13 223.3"/>
    <polygon class="cls-132" points="310.13 223.43 280.9 221.02 280.9 220.88 310.13 223.3 310.13 223.43"/>
    <polygon class="cls-122" points="310.13 223.56 280.9 221.15 280.9 221.02 310.13 223.43 310.13 223.56"/>
    <polygon class="cls-62" points="310.13 223.7 280.9 221.29 280.9 221.15 310.13 223.56 310.13 223.7"/>
    <polygon class="cls-124" points="310.13 223.83 280.9 221.42 280.9 221.29 310.13 223.7 310.13 223.83"/>
    <polygon class="cls-39" points="310.13 223.97 280.9 221.56 280.9 221.42 310.13 223.83 310.13 223.97"/>
    <polygon class="cls-148" points="310.13 224.1 280.9 221.69 280.9 221.56 310.13 223.97 310.13 224.1"/>
    <polygon class="cls-21" points="310.13 224.24 280.9 221.83 280.9 221.69 310.13 224.1 310.13 224.24"/>
    <polygon class="cls-47" points="310.13 224.37 280.9 221.96 280.9 221.83 310.13 224.24 310.13 224.37"/>
    <polygon class="cls-109" points="310.13 224.51 280.9 222.1 280.9 221.96 310.13 224.37 310.13 224.51"/>
    <polygon class="cls-50" points="310.13 224.64 280.9 222.23 280.9 222.1 310.13 224.51 310.13 224.64"/>
    <polygon class="cls-113" points="310.13 224.78 280.9 222.36 280.9 222.23 310.13 224.64 310.13 224.78"/>
    <polygon class="cls-101" points="310.13 224.91 280.9 222.5 280.9 222.36 310.13 224.78 310.13 224.91"/>
    <polygon class="cls-26" points="310.13 225.05 280.9 222.63 280.9 222.5 310.13 224.91 310.13 225.05"/>
    <polygon class="cls-87" points="310.13 225.18 280.9 222.77 280.9 222.63 310.13 225.05 310.13 225.18"/>
    <polygon class="cls-65" points="310.13 225.32 280.9 222.9 280.9 222.77 310.13 225.18 310.13 225.32"/>
    <polygon class="cls-36" points="310.13 225.45 280.9 223.04 280.9 222.9 310.13 225.32 310.13 225.45"/>
    <polygon class="cls-97" points="310.13 225.59 280.9 223.17 280.9 223.04 310.13 225.45 310.13 225.59"/>
    <polygon class="cls-150" points="310.13 225.72 280.9 223.31 280.9 223.17 310.13 225.59 310.13 225.72"/>
    <polygon class="cls-117" points="310.13 225.86 280.9 223.44 280.9 223.31 310.13 225.72 310.13 225.86"/>
    <polygon class="cls-164" points="310.13 225.99 280.9 223.58 280.9 223.44 310.13 225.86 310.13 225.99"/>
    <polygon class="cls-149" points="310.13 226.13 280.9 223.71 280.9 223.58 310.13 225.99 310.13 226.13"/>
    <polygon class="cls-103" points="310.13 226.26 280.9 223.85 280.9 223.71 310.13 226.13 310.13 226.26"/>
    <polygon class="cls-140" points="310.13 226.39 280.9 223.98 280.9 223.85 310.13 226.26 310.13 226.39"/>
    <polygon class="cls-28" points="310.13 226.53 280.9 224.12 280.9 223.98 310.13 226.39 310.13 226.53"/>
    <polygon class="cls-53" points="310.13 226.66 280.9 224.25 280.9 224.12 310.13 226.53 310.13 226.66"/>
    <polygon class="cls-33" points="310.13 226.8 280.9 224.39 280.9 224.25 310.13 226.66 310.13 226.8"/>
    <polygon class="cls-105" points="310.13 226.93 280.9 224.52 280.9 224.39 310.13 226.8 310.13 226.93"/>
    <polygon class="cls-3" points="310.13 227.07 280.9 224.66 280.9 224.52 310.13 226.93 310.13 227.07"/>
    <polygon class="cls-104" points="310.13 227.2 280.9 224.79 280.9 224.66 310.13 227.07 310.13 227.2"/>
    <polygon class="cls-99" points="310.13 227.34 280.9 224.92 280.9 224.79 310.13 227.2 310.13 227.34"/>
    <polygon class="cls-94" points="310.13 227.47 280.9 225.06 280.9 224.92 310.13 227.34 310.13 227.47"/>
    <polygon class="cls-16" points="310.13 227.61 280.9 225.19 280.9 225.06 310.13 227.47 310.13 227.61"/>
    <polygon class="cls-118" points="310.13 227.74 280.9 225.33 280.9 225.19 310.13 227.61 310.13 227.74"/>
    <polygon class="cls-70" points="310.13 227.88 280.9 225.46 280.9 225.33 310.13 227.74 310.13 227.88"/>
    <polygon class="cls-70" points="310.13 228.01 280.9 225.6 280.9 225.46 310.13 227.88 310.13 228.01"/>
    <polygon class="cls-144" points="310.13 228.15 280.9 225.73 280.9 225.6 310.13 228.01 310.13 228.15"/>
    <polygon class="cls-91" points="310.13 228.28 280.9 225.87 280.9 225.73 310.13 228.15 310.13 228.28"/>
    <polygon class="cls-67" points="310.13 228.42 280.9 226 280.9 225.87 310.13 228.28 310.13 228.42"/>
    <polygon class="cls-128" points="310.13 228.55 280.9 226.14 280.9 226 310.13 228.42 310.13 228.55"/>
    <polygon class="cls-128" points="310.13 228.69 280.9 226.27 280.9 226.14 310.13 228.55 310.13 228.69"/>
    <polygon class="cls-126" points="310.13 228.82 280.9 226.41 280.9 226.27 310.13 228.69 310.13 228.82"/>
    <polygon class="cls-126" points="310.13 228.96 280.9 226.54 280.9 226.41 310.13 228.82 310.13 228.96"/>
    <polygon class="cls-25" points="310.13 229.09 280.9 226.68 280.9 226.54 310.13 228.96 310.13 229.09"/>
    <polygon class="cls-56" points="310.13 229.22 280.9 226.81 280.9 226.68 310.13 229.09 310.13 229.22"/>
    <polygon class="cls-56" points="310.13 229.36 280.9 226.95 280.9 226.81 310.13 229.22 310.13 229.36"/>
    <polygon class="cls-43" points="310.13 229.49 280.9 227.08 280.9 226.95 310.13 229.36 310.13 229.49"/>
    <polygon class="cls-133" points="310.13 229.63 280.9 227.22 280.9 227.08 310.13 229.49 310.13 229.63"/>
    <polygon class="cls-2" points="310.13 229.76 280.9 227.35 280.9 227.22 310.13 229.63 310.13 229.76"/>
    <polygon class="cls-54" points="310.13 229.9 280.9 227.48 280.9 227.35 310.13 229.76 310.13 229.9"/>
    <polygon class="cls-66" points="310.13 230.03 280.9 227.62 280.9 227.48 310.13 229.9 310.13 230.03"/>
    <polygon class="cls-66" points="310.13 230.17 280.9 227.75 280.9 227.62 310.13 230.03 310.13 230.17"/>
    <polygon class="cls-83" points="310.13 230.3 280.9 227.89 280.9 227.75 310.13 230.17 310.13 230.3"/>
    <polygon class="cls-83" points="310.13 230.44 280.9 228.02 280.9 227.89 310.13 230.3 310.13 230.44"/>
    <polygon class="cls-59" points="310.13 230.57 280.9 228.16 280.9 228.02 310.13 230.44 310.13 230.57"/>
    <polygon class="cls-31" points="310.13 230.71 280.9 228.29 280.9 228.16 310.13 230.57 310.13 230.71"/>
    <polygon class="cls-125" points="310.13 230.84 280.9 228.43 280.9 228.29 310.13 230.71 310.13 230.84"/>
    <polygon class="cls-100" points="310.13 230.98 280.9 228.56 280.9 228.43 310.13 230.84 310.13 230.98"/>
    <polygon class="cls-100" points="310.13 231.11 280.9 228.7 280.9 228.56 310.13 230.98 310.13 231.11"/>
    <polygon class="cls-22" points="310.13 231.25 280.9 228.83 280.9 228.7 310.13 231.11 310.13 231.25"/>
    <polygon class="cls-29" points="310.13 231.38 280.9 228.97 280.9 228.83 310.13 231.25 310.13 231.38"/>
    <polygon class="cls-41" points="310.13 231.51 280.9 229.1 280.9 228.97 310.13 231.38 310.13 231.51"/>
    <polygon class="cls-41" points="310.13 231.65 280.9 229.24 280.9 229.1 310.13 231.51 310.13 231.65"/>
    <polygon class="cls-159" points="310.13 231.78 280.9 229.37 280.9 229.24 310.13 231.65 310.13 231.78"/>
    <polygon class="cls-27" points="310.13 231.92 280.9 229.51 280.9 229.37 310.13 231.78 310.13 231.92"/>
    <polygon class="cls-63" points="310.13 232.05 280.9 229.64 280.9 229.51 310.13 231.92 310.13 232.05"/>
    <polygon class="cls-63" points="310.13 232.19 280.9 229.77 280.9 229.64 310.13 232.05 310.13 232.19"/>
    <polygon class="cls-45" points="310.13 232.32 280.9 229.91 280.9 229.77 310.13 232.19 310.13 232.32"/>
    <polygon class="cls-79" points="310.13 232.46 280.9 230.04 280.9 229.91 310.13 232.32 310.13 232.46"/>
    <polygon class="cls-79" points="310.13 232.59 280.9 230.18 280.9 230.04 310.13 232.46 310.13 232.59"/>
    <polygon class="cls-79" points="310.13 232.73 280.9 230.31 280.9 230.18 310.13 232.59 310.13 232.73"/>
    <polygon class="cls-34" points="310.13 232.86 280.9 230.45 280.9 230.31 310.13 232.73 310.13 232.86"/>
    <polygon class="cls-34" points="310.13 233 280.9 230.58 280.9 230.45 310.13 232.86 310.13 233"/>
    <polygon class="cls-160" points="310.13 233.13 280.9 230.72 280.9 230.58 310.13 233 310.13 233.13"/>
    <polygon class="cls-141" points="310.13 233.27 280.9 230.85 280.9 230.72 310.13 233.13 310.13 233.27"/>
    <polygon class="cls-141" points="310.13 233.4 280.9 230.99 280.9 230.85 310.13 233.27 310.13 233.4"/>
    <polygon class="cls-141" points="310.13 233.54 280.9 231.12 280.9 230.99 310.13 233.4 310.13 233.54"/>
    <polygon class="cls-141" points="310.13 233.67 280.9 231.26 280.9 231.12 310.13 233.54 310.13 233.67"/>
    <polygon class="cls-85" points="310.13 233.81 280.9 231.39 280.9 231.26 310.13 233.67 310.13 233.81"/>
    <polygon class="cls-85" points="310.13 233.94 280.9 231.53 280.9 231.39 310.13 233.81 310.13 233.94"/>
    <polygon class="cls-85" points="310.13 234.08 280.9 231.66 280.9 231.53 310.13 233.94 310.13 234.08"/>
    <polygon class="cls-161" points="310.13 234.21 280.9 231.8 280.9 231.66 310.13 234.08 310.13 234.21"/>
    <polygon class="cls-161" points="310.13 234.34 280.9 231.93 280.9 231.8 310.13 234.21 310.13 234.34"/>
    <polygon class="cls-102" points="310.13 234.48 280.9 232.07 280.9 231.93 310.13 234.34 310.13 234.48"/>
    <polygon class="cls-102" points="310.13 234.61 280.9 232.2 280.9 232.07 310.13 234.48 310.13 234.61"/>
    <polygon class="cls-102" points="310.13 234.75 280.9 232.34 280.9 232.2 310.13 234.61 310.13 234.75"/>
    <polygon class="cls-102" points="310.13 234.88 280.9 232.47 280.9 232.34 310.13 234.75 310.13 234.88"/>
    <polygon class="cls-48" points="310.13 235.02 280.9 232.61 280.9 232.47 310.13 234.88 310.13 235.02"/>
    <polygon class="cls-48" points="310.13 235.15 280.9 232.74 280.9 232.61 310.13 235.02 310.13 235.15"/>
    <polygon class="cls-139" points="310.13 235.29 280.9 232.87 280.9 232.74 310.13 235.15 310.13 235.29"/>
    <polygon class="cls-139" points="310.13 235.42 280.9 233.01 280.9 232.87 310.13 235.29 310.13 235.42"/>
    <polygon class="cls-158" points="310.13 235.56 280.9 233.14 280.9 233.01 310.13 235.42 310.13 235.56"/>
    <polygon class="cls-158" points="310.13 235.69 280.9 233.28 280.9 233.14 310.13 235.56 310.13 235.69"/>
    <polygon class="cls-158" points="310.13 235.83 280.9 233.41 280.9 233.28 310.13 235.69 310.13 235.83"/>
    <polygon class="cls-158" points="310.13 235.96 280.9 233.55 280.9 233.41 310.13 235.83 310.13 235.96"/>
    <polygon class="cls-51" points="310.13 236.1 280.9 233.68 280.9 233.55 310.13 235.96 310.13 236.1"/>
    <polygon class="cls-51" points="310.13 236.23 280.9 233.82 280.9 233.68 310.13 236.1 310.13 236.23"/>
    <polygon class="cls-51" points="310.13 236.37 280.9 233.95 280.9 233.82 310.13 236.23 310.13 236.37"/>
    <polygon class="cls-61" points="310.13 236.5 280.9 234.09 280.9 233.95 310.13 236.37 310.13 236.5"/>
    <polygon class="cls-61" points="310.13 236.63 280.9 234.22 280.9 234.09 310.13 236.5 310.13 236.63"/>
    <polygon class="cls-61" points="310.13 236.77 280.9 234.36 280.9 234.22 310.13 236.63 310.13 236.77"/>
    <polygon class="cls-90" points="310.13 236.9 280.9 234.49 280.9 234.36 310.13 236.77 310.13 236.9"/>
    <polygon class="cls-90" points="310.13 237.04 280.9 234.63 280.9 234.49 310.13 236.9 310.13 237.04"/>
    <polygon class="cls-68" points="310.13 237.17 280.9 234.76 280.9 234.63 310.13 237.04 310.13 237.17"/>
    <polygon class="cls-68" points="310.13 237.31 280.9 234.9 280.9 234.76 310.13 237.17 310.13 237.31"/>
    <polygon class="cls-68" points="309.77 237.41 280.9 235.03 280.9 234.9 310.13 237.31 310.13 237.41 309.77 237.41"/>
    <polygon class="cls-12" points="308.14 237.41 280.9 235.16 280.9 235.03 309.77 237.41 308.14 237.41"/>
    <polygon class="cls-12" points="306.51 237.41 280.9 235.3 280.9 235.16 308.14 237.41 306.51 237.41"/>
    <polygon class="cls-12" points="304.88 237.41 280.9 235.43 280.9 235.3 306.51 237.41 304.88 237.41"/>
    <polygon class="cls-12" points="303.24 237.41 280.9 235.57 280.9 235.43 304.88 237.41 303.24 237.41"/>
    <polygon class="cls-142" points="301.61 237.41 280.9 235.7 280.9 235.57 303.24 237.41 301.61 237.41"/>
    <polygon class="cls-142" points="299.98 237.41 280.9 235.84 280.9 235.7 301.61 237.41 299.98 237.41"/>
    <polygon class="cls-142" points="298.35 237.41 280.9 235.97 280.9 235.84 299.98 237.41 298.35 237.41"/>
    <polygon class="cls-142" points="296.72 237.41 280.9 236.11 280.9 235.97 298.35 237.41 296.72 237.41"/>
    <polygon class="cls-44" points="295.09 237.41 280.9 236.24 280.9 236.11 296.72 237.41 295.09 237.41"/>
    <polygon class="cls-44" points="293.45 237.41 280.9 236.38 280.9 236.24 295.09 237.41 293.45 237.41"/>
    <polygon class="cls-44" points="291.82 237.41 280.9 236.51 280.9 236.38 293.45 237.41 291.82 237.41"/>
    <polygon class="cls-44" points="290.19 237.41 280.9 236.65 280.9 236.51 291.82 237.41 290.19 237.41"/>
    <polygon class="cls-123" points="288.56 237.41 280.9 236.78 280.9 236.65 290.19 237.41 288.56 237.41"/>
    <polygon class="cls-123" points="286.93 237.41 280.9 236.92 280.9 236.78 288.56 237.41 286.93 237.41"/>
    <polygon class="cls-123" points="285.3 237.41 280.9 237.05 280.9 236.92 286.93 237.41 285.3 237.41"/>
    <polygon class="cls-123" points="283.66 237.41 280.9 237.19 280.9 237.05 285.3 237.41 283.66 237.41"/>
    <polygon class="cls-123" points="282.03 237.41 280.9 237.32 280.9 237.19 283.66 237.41 282.03 237.41"/>
    <polygon class="cls-123" points="280.9 237.32 282.03 237.41 280.9 237.41 280.9 237.32"/>
  </g>
  <path class="cls-127" d="m294.85,232.45c-4.12-.34-7.29-4.47-6.91-9.01.37-4.54,4.17-8.09,8.3-7.75,4.12.34,7.28,4.46,6.92,9-.37,4.54-4.18,8.1-8.3,7.76Z"/>
  <path class="cls-106" d="m295.21,230.81c-2.87-.24-5.85-3.37-5.53-7.22.32-3.86,3.77-6.47,6.64-6.24,2.87.24,5.84,3.38,5.52,7.23-.32,3.85-3.77,6.46-6.63,6.22Z"/>
  <path class="cls-7" d="m292.88,221.32c-.12,1.39-1.56,2.41-3.21,2.27-1.65-.14-2.9-1.38-2.78-2.77.12-1.4,1.55-2.41,3.2-2.28,1.66.13,2.9,1.38,2.79,2.77Z"/>
  <path class="cls-7" d="m302.14,229.36c-.06.69-.78,1.2-1.6,1.13-.83-.06-1.45-.69-1.4-1.38.06-.69.78-1.2,1.6-1.13.83.06,1.46.69,1.4,1.38Z"/>
  <path class="cls-80" d="m126.77,235.81c6.23-10.11,15.98-5.87,18.41-3.66,2.57,2.38,4.61,5.55,3.07,11.54-.83,3.36-4.37,3.65-3.45,8.76,1,5.72,3.65,6.08,5.16,7.36,1.51,1.27,3.41,2.24,4.37,4.69.93,2.4,1.09,4.97.63,7.17-.96,4.14-7.01.93-11.03-.89-2.67-1.18-11.16-8.25-13.32-10.59-5.4-6.01-8-17.6-3.85-24.38"/>
  <path class="cls-17" d="m257.91,281.13c2.2-1.47,4.77-.77,4.77-.77,0,0-.04.06-.09.15-.52.87-3.47,5.6-5.82,5.53.06-.04-.52-.43-.66-1.57-.19-1.12.73-2.59,1.8-3.33Z"/>
  <path class="cls-11" d="m392.56,461.94c-.26-4.4-.57-8.05-.94-9.87v-.09c-.08-.48-.16-.8-.25-.96v-.24c-3-13.34,2.26-19.53-19.3-32.47-.17-.08-4.93-1.53-11.95-3.77h-.09c-4.84-1.53-10.86-3.46-17.13-5.55-.59-.16-1.17-.4-1.76-.56-.33-.11-.67-.23-1.01-.34-4.27-1.82-32.4-14.5-39.71-35.76-18.16.14-33.44,12.22-38.44,28.76h-31.22c-5-16.53-20.28-28.62-38.44-28.76-7.31,21.26-35.44,33.94-39.7,35.76-.34.11-.68.23-1.01.34-.59.16-1.17.41-1.75.56-6.27,2.09-12.29,4.02-17.13,5.55h-.09c-7.02,2.24-11.78,3.7-11.95,3.77-21.56,12.93-16.3,19.13-19.3,32.47v.24c-.09.16-.17.48-.25.96v.09c-.37,1.82-.68,5.47-.94,9.87h39.73c-4.06,14.72-6.99,21.89-8.16,37.55h229.21c-1.17-15.66-4.09-22.83-8.16-37.55h39.73Z"/>
  <path class="cls-7" d="m417.67,411.79c-14.95-28.46-14.26-25.7-22.55-44.99-8.29-19.25-8.97-31.19-9.67-39.46-.7-8.26,14.04-111.76,14.04-138.84s-6.95-54.52-16.63-71.95c-9.67-17.43-24.34-37.2-36.07-43.17-11.74-6-44.39-27.27-56.83-30.48-12.41-3.21-30.26-6.74-43.37-6.74s-27.54,4.35-39.97,13.99c-5.07,3.95-9.57,10.44-13.12,16.78-48.66,18.98-58.88,67.38-59.02,111.5-.02,11.05.58,21.85,1.35,31.84,1.29,1.24,2.67,2.73,3.93,4.58.91,1.34,1.79,2.84,2.5,4.71,3.49,8.99,4.82,7.45,4.82,7.45l2.32-7.99s-.31-71.97,40.28-95.08c.23-.08.48-.19.71-.27,17.55-5.75,33.72,6.34,52.52,6.34h1.47c1.37-.03,2.73-.14,4.08-.28.04,0,.12-.01.18-.02.31-.03.62-.07.94-.12,16.28-2.04,30.8-11.06,46.42-5.93,7.24,2.4,16.83,11.19,25.61,21.32,5.96,17.62,7.89,33.86,8.59,35.04,1.39,2.29,2.79,41.46.03,71.9-.88,10.03-1.74,18.24-2.5,25.07-.99,8.57-1.87,14.92-2.67,19.76-1.09,6.65-1.99,10.5-2.75,13.42-1.29,5.11-2.12,7.43-2.44,17.17-.61,16.97.86,31.45,3.69,43.86.49,2.22,1.02,4.35,1.6,6.42.71,2.54,1.48,4.98,2.32,7.34-.31-.03-.6-.05-.92-.08.44.47.89.96,1.34,1.46,1.24,3.98,5.7,16.11,17.21,30.05,19.05,22.44,41.79,26.67,41.79,26.67,0,0-20.29-8.45-31.4-55.77-.21-.92-.62-2.7-1.12-4.96,8.95,29.54,41.52,43.19,41.52,43.19,0,0-14.11-12.59-22.32-35.36,12.39,10.58,27.03,18.15,33.97,26.67,12.2,15,14.52,29.85,6.21,40.42,0,0,18.87-17,3.92-45.45Z"/>
  <g>
    <path class="cls-74" d="m233.26,239.21c0,19.96-22,39.73-47.32,39.73-35.28,0-40.05-17.61-40.05-37.57s-8.75-36.12,42.98-36.12,44.39,14.03,44.39,33.97"/>
    <path class="cls-74" d="m268.7,239.21c0,19.96,22.01,40.75,47.3,39.73,36.15-1.47,38.02-18.41,38.02-38.36s10.77-35.33-40.94-35.33-44.38,14.03-44.38,33.97"/>
    <path class="cls-13" d="m167.62,273.8c9.21,2.82,43.85,6.82,58.18-19.9-28.86-14.86-57.96-6.83-74.85.64,4.93,15.04,13.24,18.23,16.67,19.27Z"/>
    <path class="cls-13" d="m333.9,273.8c3.2-.97,10.64-3.8,15.63-16.43-27.5-16.43-53.8-8.17-70.77,1.41,15.69,21.31,46.51,17.65,55.14,15.02Z"/>
    <path class="cls-7" d="m140.64,228.29c1.14,4.31,5.71,35.28,15.92,43.76,16.78,13.95,73.26,14.56,82.99-36.27,1.35-6.93,3.1-11,6.13-12.13,1.25-.45,3.07-.8,4.95-.81,1.85,0,3.67.36,4.91.81,3.03,1.13,4.82,5.2,6.16,12.13,9.72,50.83,66.2,50.22,83.01,36.27,10.21-8.48,14.78-39.45,15.9-43.76,1.12-4.31,5.78-6.9,7.11-8.22,1.33-1.3.33-13.47-.12-14.42-.63-1.31-13.29-3.18-29.78-4.72-13.92-1.31-36.25-.43-45.07.79-3.61.51-10.21,1.76-16.67,3.49-7.28,1.96-14.43,4.47-17.42,5.13-2.89.6-5.14.82-7.49.77v-.03c-.18.01-.36,0-.54.02-.18-.01-.36,0-.54-.02v.03c-2.37.06-4.64-.16-7.52-.77-2.96-.65-10.11-3.16-17.43-5.13-6.45-1.73-13.06-2.99-16.66-3.49-8.79-1.21-31.16-2.09-45.08-.79-16.49,1.54-29.11,3.41-29.77,4.72-.44.95-1.45,13.12-.1,14.42,1.31,1.32,5.96,3.91,7.11,8.22Zm130.15-9.84c1.72-6.19,18.92-9.79,26.33-10.75,7.35-.94,18.3-1.6,30.58-.03,15.11,1.88,25.8,3.25,24.31,25.79-2.13,32.41-15.33,37.59-19.85,38.97-10.31,3.14-52.85,7.78-61.62-32.06-1.91-8.71-1.47-15.74.25-21.91Zm-97.25-10.78c12.3-1.56,23.21-.91,30.58.03,7.39.95,24.64,4.56,26.35,10.75,1.7,6.18,2.14,13.2.22,21.91-8.8,39.83-51.33,35.2-61.6,32.06-4.53-1.37-17.75-6.56-19.86-38.97-1.49-22.54,9.18-23.91,24.31-25.79Z"/>
  </g>
  <rect class="cls-108" x="230.77" y="401.09" width="31.91" height="98.41"/>
  <rect class="cls-108" x="95.38" y="452.4" width="59.84" height="16.62"/>
  <rect class="cls-108" x="337.88" y="452.4" width="59.84" height="16.62"/>
  <rect class="cls-108" x="222.26" y="410.71" width="48.59" height="13.79"/>
  <rect class="cls-108" x="222.26" y="432.5" width="48.59" height="13.8"/>
  <rect class="cls-108" x="222.26" y="454.29" width="48.59" height="13.79"/>
</svg>