<?xml version="1.0" encoding="UTF-8"?>
<svg id="Calque_1" data-name="Calque 1" xmlns="http://www.w3.org/2000/svg" viewBox="0 0 499.49 499.49">
  <defs>
    <style>
      .cls-1 {
        fill: #96d8ff;
      }

      .cls-2 {
        fill: #fd9e80;
      }

      .cls-3 {
        fill: #a16451;
      }

      .cls-4 {
        font-family: Roboto-Medium, 'Roboto Medium';
        font-size: 142.23px;
        font-weight: 500;
        letter-spacing: .1em;
      }

      .cls-5 {
        fill: #de7f61;
      }

      .cls-6 {
        fill: #116b9e;
      }
    </style>
  </defs>
  <path class="cls-1" d="m499.49,249.75c0,78.62-36.31,148.72-93.06,194.46-7.99,6.45-16.38,12.4-25.13,17.83-13.68,8.54-28.28,15.75-43.57,21.5-27.36,10.31-57.03,15.96-88,15.96s-61.74-5.84-89.54-16.55c-14.81-5.69-28.95-12.75-42.26-21.05-9.4-5.84-18.39-12.31-26.91-19.33C35.44,396.79,0,327.41,0,249.75,0,111.82,111.82,0,249.75,0s249.75,111.82,249.75,249.75Z"/>
  <g>
    <path class="cls-5" d="m201.58,243.29c0,11.72-9.08,21.21-20.28,21.21s-23.47-13.98-23.47-25.69,4.04-16.73,15.24-16.73,28.51,9.5,28.51,21.22Z"/>
    <path class="cls-5" d="m300.77,243.29c0,11.72,9.08,21.21,20.28,21.21s23.47-13.98,23.47-25.69-4.04-16.73-15.24-16.73-28.51,9.5-28.51,21.22Z"/>
    <rect class="cls-5" x="223.32" y="304.38" width="51.09" height="86.6"/>
    <path class="cls-6" d="m406.44,444.2c-7.99,6.45-16.38,12.4-25.13,17.83-13.68,8.54-28.28,15.75-43.57,21.5-27.36,10.31-57.03,15.96-88,15.96s-61.74-5.84-89.54-16.55c-14.81-5.69-28.95-12.75-42.26-21.05-9.4-5.84-18.39-12.31-26.91-19.33,11.47-20.82,23.93-40.68,30.34-42.28,20-4.93,101.94-31.77,101.94-31.77,0,0,50.78,1.87,51.08,2,.02,0,84.85,22.7,102.96,29.78,8.41,3.28,20.5,25.78,29.08,43.91Z"/>
    <path class="cls-2" d="m331.97,209.52c0,59.23-35.92,119.81-80.23,119.81s-80.23-60.57-80.23-119.81,35.92-94.71,80.23-94.71,80.23,35.47,80.23,94.71Z"/>
    <path class="cls-3" d="m269.93,96.89c-36-12.84-85.07,6.73-103.08,44.37-9.01,18.83,8.84,103.83,8.84,103.83l3.12-6.28c8.89-20.92,10.11-70.92,22.78-79.99,16.76-15.09,33.69-6.83,47.28-1.57,28.53,11.05,45.56,3.29,45.56,3.29l15.84-21.51c-5.38-31.67-40.32-42.12-40.34-42.13Z"/>
    <path class="cls-3" d="m293.53,153.95s-1.12,20.71,13.6,29.63c21.95,13.31,9.52,63.87,20.1,63.87,0,0,23.38-80.95,6.34-99.18-17.03-18.23-36.75-10.16-36.75-10.16l-3.3,14.94v.9Z"/>
    <path class="cls-5" d="m274.53,370.56c0,5.32-11.29,9.64-25.22,9.64s-25.99-6.35-25.99-11.67,12.06-7.6,25.99-7.6,25.22,4.32,25.22,9.64Z"/>
    <text class="cls-4" transform="translate(217.14 295.38)"><tspan x="0" y="0">?</tspan></text>
  </g>
</svg>