<?xml version="1.0" encoding="UTF-8"?>
<svg id="Calque_1" data-name="Calque 1" xmlns="http://www.w3.org/2000/svg" xmlns:xlink="http://www.w3.org/1999/xlink" viewBox="0 0 497.85 497.85">
  <defs>
    <style>
      .cls-1 {
        fill: url(#linear-gradient-2);
      }

      .cls-2 {
        fill: #fff;
      }

      .cls-3 {
        fill: #c6987c;
      }

      .cls-4 {
        opacity: .51;
      }

      .cls-5 {
        fill: #9065a7;
      }

      .cls-6 {
        fill: #496a78;
      }

      .cls-7 {
        fill: #fad8ce;
      }

      .cls-8 {
        fill: #22201c;
      }

      .cls-9 {
        fill: #242220;
        opacity: .4;
      }

      .cls-10 {
        fill: #1e2528;
      }

      .cls-11 {
        fill: #ebbdb3;
      }

      .cls-12 {
        fill: #d7a59c;
      }

      .cls-13 {
        fill: #f4f4f4;
        opacity: .55;
      }

      .cls-14 {
        fill: none;
      }

      .cls-15 {
        fill: #ecbfb4;
      }

      .cls-16 {
        fill: #5e2a25;
        opacity: .2;
      }

      .cls-17 {
        fill: #fad9cf;
      }

      .cls-18 {
        fill: #4e463f;
      }

      .cls-19 {
        fill: #4c443f;
        opacity: .3;
      }

      .cls-20 {
        fill: url(#linear-gradient);
      }

      .cls-21 {
        fill: #f3f4f3;
      }
    </style>
    <linearGradient id="linear-gradient" x1="189.94" y1="199.65" x2="189.94" y2="220.53" gradientTransform="translate(33.57 26.74) rotate(4.72)" gradientUnits="userSpaceOnUse">
      <stop offset="0" stop-color="#253842"/>
      <stop offset=".13" stop-color="#3b5462"/>
      <stop offset=".3" stop-color="#537386"/>
      <stop offset=".48" stop-color="#678ba2"/>
      <stop offset=".65" stop-color="#759db6"/>
      <stop offset=".83" stop-color="#7da7c2"/>
      <stop offset="1" stop-color="#80abc7"/>
    </linearGradient>
    <linearGradient id="linear-gradient-2" x1="-990.45" y1="297.05" x2="-990.45" y2="317.68" gradientTransform="translate(-711.35 26.74) rotate(175.28) scale(1 -1)" xlink:href="#linear-gradient"/>
  </defs>
  <rect class="cls-5" width="497.85" height="497.85"/>
  <g>
    <path class="cls-17" d="m323.02,261.83c.12-13.03,8.3-24.4,20.58-30.94-.24,3.24-.49,6.43-.77,9.52,7.68-14.24,30.02-9.62,28,12.95-1.98,21.75-33.69,32.73-33.23,30.21-.33,1.73-.72,3.42-1.16,5.1-8.35-6.84-13.52-16.34-13.43-26.84Z"/>
    <path class="cls-15" d="m363.86,243.74c-5.38-8.75-13.81-5.08-15.91-3.16-2.22,2.06-3.99,4.8-2.65,9.99.71,2.91,3.78,3.16,2.98,7.58-.86,4.95-3.15,5.26-4.46,6.37-1.3,1.1-2.94,1.94-3.77,4.06-.8,2.08-.94,4.3-.55,6.2.83,3.58,6.05.8,9.53-.77,2.31-1.02,9.64-7.13,11.51-9.16,4.66-5.2,6.92-15.23,3.32-21.1"/>
  </g>
  <g>
    <path class="cls-17" d="m182.37,261.83c-.12-13.03-8.3-24.4-20.58-30.94.24,3.24.49,6.43.77,9.52-7.68-14.24-30.02-9.62-28,12.95,1.98,21.75,33.69,32.73,33.23,30.21.33,1.73.72,3.42,1.16,5.1,8.35-6.84,13.52-16.34,13.43-26.84Z"/>
    <path class="cls-15" d="m141.53,243.74c5.38-8.75,13.81-5.08,15.91-3.16,2.22,2.06,3.99,4.8,2.65,9.99-.71,2.91-3.78,3.16-2.98,7.58.86,4.95,3.15,5.26,4.46,6.37,1.3,1.1,2.94,1.94,3.77,4.06.8,2.08.94,4.3.55,6.2-.83,3.58-6.06.8-9.53-.77-2.31-1.02-9.64-7.13-11.51-9.16-4.67-5.2-6.92-15.23-3.32-21.1"/>
  </g>
  <path class="cls-7" d="m402.33,497.85H104.64c0-1.12.08-2.24.08-3.28,0,0,.67-35.96,2.31-39.1,3.13-12.53-2.46-18.28,19.59-30.37.3-.07,5.14-1.41,12.3-3.51,15.05-4.32,40.6-11.78,53.86-17.01h.07l.08-.07c2.98-1.27,5.43-2.32,6.85-3.21,0-.08.07-.08.07-.08.37-.22.6-.37.74-.59.08-.08.38-.31.52-.53.15-.23.44-.38.6-.6.44-2.09,6.56-11.04,8.79-20.9.07-.15.15-.22.23-.36.52-2.02.74-3.96.89-5.97.07-3.21.23-6.41.23-9.25.07-1.64.14-3.13.14-4.55,0-.6,0-1.19.07-1.72,0-.6.08-1.12.08-1.64v-.44c.07-1.35.07-2.46.07-3.29.07-.9.07-1.42.07-1.42,0,0-34.05-25.37-34.05-30.88,0,0,35.61,5.44,58.7,7.98.45.08.89.08,1.35.15,1.56.15,2.97.37,4.32.52.07,0,.3,0,.74.07,2.01.15,3.8.3,5.44.44,1.04.07,2.01.15,2.83.15.67.15,1.26.15,1.94.07.37,0,.74.08,1.12,0,.89-.07,2.01-.07,3.2-.15,0-.07.15-.07.23-.07,2.68-.15,6.03-.52,9.76-.96.3,0,.6-.08.89-.08h.07c23.02-2.46,59.82-8.13,59.82-8.13,0,5.52-33.89,30.88-33.89,30.88,0,0,0,.52.07,1.42,0,.44,0,.97.07,1.57-.07.15-.07.22,0,.37v.82c-.07.22,0,.52,0,.74,0,1.05.07,2.24.07,3.51.15,3.88.3,8.73.45,13.8.07,1.04.07,2.01.23,2.99.15.96.37,1.94.59,2.98,0,.08.08.08.08.08,0,.07,0,.15.07.15v.07c2.16,9.92,8.42,18.95,8.94,21.04.07.07.07.15.07.22.15.15.3.23.44.38.15.22.45.44.45.53.52.44,1.27.89,2.31,1.41.38.15.6.3.97.45h.08c10.8,5.14,41.12,14.09,58.41,19.09,7.22,2.1,11.99,3.44,12.29,3.51,22.2,12.09,16.46,17.84,19.6,30.37,1.71,3.13,2.31,39.1,2.31,39.1,0,1.04,0,2.16.07,3.28Z"/>
  <path class="cls-12" d="m296.34,378.24c-.51-2.01-.77-3.96-.86-5.97-.25-6.72.95-15.68.86-19.86-12.8,5-27.3,10.46-40.19,10.46-.76.13-1.75.13-2.61.13s-1.86,0-2.62-.13c-12.87,0-26.02-2.91-38.83-7.91-.07,4.18-.23,10.59-.49,17.31-.1,2.01-.34,3.96-.86,5.97,12.37,9.02,29.09,18.35,40.18,18.35.69.13,1.55.12,2.34.13v.03c.1,0,.2-.01.28-.01.09,0,.18.01.28.01v-.03c.8-.01,1.64,0,2.33-.13,11.1,0,27.82-9.33,40.19-18.35Z"/>
  <path class="cls-7" d="m357.08,198.34c-.07.75-.07,1.57-.15,2.46-.15.9-.23,1.87-.31,2.84-.14,1.27-.22,2.54-.44,3.73-.07.6-.15,1.27-.22,1.87-.22,1.49-.52,2.83-.74,4.33-.07.6-.23,1.19-.3,1.79-.3,1.26-.52,2.54-.9,3.8-.14.74-.37,1.56-.52,2.54-.22.67-.37,1.49-.6,2.16-.96,3.51-9.01,45.22-14.83,72.3-2.38,11.27-4.39,20-5.35,22.46-5.44,13.73-40.97,39.02-63.85,49.76-.07.07-.22.07-.3.15-6.48,3.13-12,4.93-15.34,4.93h-.45c-3.65-.07-8.94-1.72-15.05-4.47-.31-.23-.67-.38-1.05-.52-23.54-10.59-58.7-36.11-64.14-49.84-1.05-2.61-3.21-12.62-5.67-25.15-5.36-27.07-12.36-66.24-13.34-69.61-.22-.67-.37-1.49-.6-2.16-.15-.98-.37-1.79-.52-2.54-.36-1.27-.6-2.54-.89-3.8-.07-.61-.22-1.2-.3-1.79-.23-1.5-.52-2.84-.75-4.33-.07-.6-.15-1.27-.22-1.87-.22-1.19-.31-2.46-.45-3.73-.07-.98-.15-1.95-.29-2.84-.08-.89-.08-1.71-.15-2.46-.97-19.54,3.2-39.39,15.94-57.3,15.42-21.64,33.15-44.62,71.67-47.75h32.48c38.51,3.13,56.25,26.11,71.66,47.75,12.75,17.91,16.92,37.76,15.95,57.3Z"/>
  <path class="cls-11" d="m236.35,305.31c-.34-6.98,12.81-2.55,17.15-2.33,3.43.17,13.85-2.2,14.75-1.59,6.13,4.14-6.5,12.47-14.96,12.47-2.26,0-16.73-4.34-16.93-8.55Z"/>
  <path class="cls-18" d="m231.69,228.2s-2.74-2-7.09-4.14c-2.17-1.09-4.76-2.18-7.59-3.08-1.41-.48-2.89-.86-4.41-1.2-1.49-.44-3.07-.57-4.63-.83-1.55-.26-3.14-.28-4.69-.43-1.56,0-3.1,0-4.59,0-1.5.12-2.94.24-4.31.35-1.38.11-2.66.41-3.88.55-2.44.28-4.41.85-5.85,1.1-1.45.26-2.28.41-2.28.41,0,0,.72-.42,1.99-1.17,1.3-.68,3.12-1.84,5.54-2.61,1.2-.41,2.49-.99,3.92-1.29,1.43-.31,2.95-.68,4.54-.93,1.61-.11,3.27-.33,4.97-.36,1.7.11,3.44.09,5.16.33,1.7.32,3.43.53,5.06,1.06,1.67.39,3.22,1.03,4.71,1.66,1.52.56,2.85,1.42,4.15,2.1,1.25.8,2.43,1.53,3.41,2.36,4.09,3.14,5.85,6.12,5.85,6.12Z"/>
  <path class="cls-2" d="m180.31,244.53s8.07,16.04,20.4,17.69c12.33,1.66,25.45-.52,25.45-.52,0,0,.18-18.56-6.23-21.17-6.42-2.62-21.08-6.59-39.61,4.01Z"/>
  <path class="cls-20" d="m215.66,249.82c-.52,5.65-5.37,9.91-10.82,9.5-5.46-.39-9.44-5.3-8.92-10.94.52-5.65,5.37-9.92,10.83-9.51,5.44.41,9.44,5.3,8.91,10.96Z"/>
  <path class="cls-6" d="m205.22,256.12c-2.91-.22-5.1-3.25-4.79-6.63.32-3.37,3.04-6.05,5.95-5.84,2.9.22,5.09,3.25,4.79,6.63-.32,3.38-3.04,6.05-5.95,5.84Z"/>
  <path class="cls-10" d="m205.49,254.89c-2.02-.15-4.09-2.45-3.83-5.32.27-2.86,2.74-4.82,4.76-4.68,2.02.15,4.1,2.45,3.83,5.32-.27,2.86-2.73,4.82-4.76,4.68Z"/>
  <path class="cls-19" d="m226.17,261.65s-.28.03-.9.15c-.49-5.7-1.93-13.57-5.93-15.18-5.96-2.48-19.31-6.11-36.38,2.24-1.74-2.49-2.65-4.37-2.65-4.37,18.57-10.62,33.25-6.67,39.61-4.05,6.43,2.64,6.25,21.22,6.25,21.22Z"/>
  <path class="cls-14" d="m180.3,244.55s8.08,16.03,20.4,17.69c12.34,1.65,25.45-.53,25.45-.53,0,0,.19-18.56-6.23-21.19-6.42-2.62-21.08-6.57-39.62,4.02Z"/>
  <path class="cls-2" d="m203.96,247.85c-.1,1.04-1.12,1.81-2.29,1.72-1.16-.07-2.03-.99-1.93-2.03.09-1.04,1.12-1.81,2.28-1.72,1.17.09,2.03.99,1.94,2.03Z"/>
  <path class="cls-2" d="m210.4,253.76c-.04.51-.55.9-1.13.86-.59-.04-1.02-.51-.97-1.02.05-.51.57-.9,1.14-.86.59.04,1.02.49.97,1.02Z"/>
  <path class="cls-18" d="m273.7,228.37s1.77-2.97,5.88-6.07c.99-.82,2.17-1.55,3.42-2.34,1.3-.67,2.63-1.53,4.15-2.08,1.49-.63,3.05-1.25,4.71-1.64,1.63-.52,3.35-.72,5.06-1.04,1.72-.23,3.45-.21,5.15-.32,1.7.03,3.36.25,4.96.36,1.59.25,3.1.62,4.53.93,1.44.29,2.72.87,3.92,1.27,2.42.76,4.24,1.91,5.54,2.59,1.27.74,1.99,1.16,1.99,1.16,0,0-.83-.14-2.28-.4-1.44-.24-3.41-.81-5.85-1.08-1.21-.14-2.49-.44-3.87-.54-1.37-.11-2.81-.22-4.31-.34-1.49,0-3.02,0-4.58,0-1.54.15-3.13.17-4.68.42-1.55.25-3.13.38-4.62.81-1.52.33-3,.69-4.41,1.18-2.83.89-5.42,1.97-7.6,3.04-4.36,2.12-7.11,4.09-7.11,4.09Z"/>
  <path class="cls-2" d="m325.25,245.52s-7.8,15.72-20.11,17.17c-12.31,1.46-25.46-.89-25.46-.89,0,0-.48-18.33,5.89-20.82,6.37-2.51,20.98-6.19,39.68,4.55Z"/>
  <path class="cls-14" d="m325.25,245.52s-7.8,15.72-20.11,17.17c-12.31,1.46-25.46-.89-25.46-.89,0,0-.48-18.33,5.89-20.82,6.37-2.51,20.98-6.19,39.68,4.55Z"/>
  <path class="cls-1" d="m290.94,249.65c.52,5.58,5.37,9.78,10.81,9.38,5.46-.39,9.44-5.25,8.92-10.81-.52-5.6-5.37-9.79-10.82-9.4-5.45.39-9.45,5.25-8.91,10.83Z"/>
  <path class="cls-6" d="m301.37,255.85c2.91-.2,5.11-3.21,4.79-6.54-.3-3.34-3.04-5.97-5.94-5.77-2.9.2-5.1,3.21-4.79,6.54.31,3.34,3.04,5.99,5.94,5.77Z"/>
  <path class="cls-10" d="m301.11,254.65c2.02-.15,4.09-2.4,3.83-5.25-.27-2.83-2.74-4.77-4.76-4.62-2.02.15-4.09,2.42-3.83,5.25.27,2.83,2.74,4.77,4.76,4.62Z"/>
  <path class="cls-19" d="m279.66,261.74s.28.04.9.17c.39-5.64,1.7-13.38,5.69-14.91,5.92-2.36,19.21-5.76,36.41,2.75,1.71-2.45,2.59-4.28,2.59-4.28-18.74-10.77-33.36-7.08-39.68-4.59-6.39,2.51-5.91,20.85-5.91,20.85Z"/>
  <path class="cls-2" d="m299.09,247.71c-.09,1.02-1.12,1.78-2.28,1.69-1.16-.09-2.04-.99-1.94-2,.09-1.02,1.12-1.78,2.28-1.7,1.16.09,2.04.98,1.94,2.01Z"/>
  <path class="cls-2" d="m305.55,253.52c-.06.51-.57.89-1.15.85-.58-.04-1.02-.5-.97-1.01.05-.5.56-.89,1.14-.85.58.04,1.02.5.98,1.01Z"/>
  <path class="cls-11" d="m275.95,338.75c-3.27-.16-6.62-.9-10.55-1.31-.16-.08-.24-.08-.41-.08-.9-.16-1.8,0-2.78.24-1.22.26-2.45.75-3.6,1.15-1.96.64-4.18,1.15-6.46.98v.02s-.08-.02-.13-.02-.08.02-.13.02v-.02c-2.28.18-4.49-.34-6.46-.98-1.15-.4-2.38-.9-3.6-1.15-.98-.24-1.88-.4-2.78-.24-.17,0-.25,0-.41.08-3.93.42-7.29,1.15-10.55,1.31-.9.08-2.21-.16-2.95-.16.16.08.33.16.5.24,9.31,4.55,17.35,9.6,26.25,9.32h.25c8.9.27,16.94-4.78,26.25-9.32.17-.08.34-.16.5-.24-.73,0-2.04.24-2.95.16Z"/>
  <path class="cls-14" d="m248.15,335.39c-.41-.07-.78-.14-1.11-.21.38.08.74.16,1.11.21Z"/>
  <path class="cls-14" d="m246.62,335.08c-.25-.06-.51-.11-.67-.15.22.06.45.1.67.15Z"/>
  <path class="cls-16" d="m278.69,338.49h0s-9.47-7.11-16.21-4.97c0,0-2.51.98-5.11,1.58-1.58.62-3.5.79-5.35.72h0c-1.42-.06-2.76-.24-3.87-.43-.37-.06-.73-.13-1.11-.21-.16-.03-.28-.06-.42-.09-.23-.05-.45-.1-.67-.15-.24-.06-.39-.1-.39-.1h.01c-2.15-.59-4-1.31-4-1.31-6.74-2.14-16.21,4.97-16.21,4.97h0c-.13.06-.21.1-.21.1.73,0,2.05.24,2.95.16,3.27-.16,6.62-.9,10.55-1.31.16-.08.24-.08.41-.08.9-.16,1.8,0,2.78.24,1.22.26,2.45.75,3.6,1.15,1.96.64,4.18,1.15,6.46.98v.02s.08-.02.13-.02.08.02.13.02v-.02c2.28.18,4.49-.34,6.46-.98,1.15-.4,2.38-.9,3.6-1.15.98-.24,1.88-.4,2.78-.24.17,0,.25,0,.41.08,3.93.42,7.29,1.15,10.55,1.31.9.08,2.21-.16,2.95-.16,0,0-.08-.04-.21-.1Z"/>
  <path class="cls-3" d="m247.04,335.17c-.14-.03-.28-.06-.42-.09.14.03.26.06.42.09Z"/>
  <path class="cls-3" d="m245.95,334.93c-.13-.03-.25-.07-.38-.11h-.01s.15.04.39.11Z"/>
  <path class="cls-14" d="m253.54,449.93c16.11,0,30.53-7.26,40.43-18.72h-80.86c9.9,11.46,24.32,18.72,40.43,18.72Z"/>
  <path class="cls-17" d="m169.07,284.93c0,4.46-3.61,8.08-8.07,8.08s-8.07-3.62-8.07-8.08,3.61-8.08,8.07-8.08,8.07,3.62,8.07,8.08Z"/>
  <path class="cls-5" d="m164.39,284.93c0,1.88-1.52,3.4-3.39,3.4s-3.39-1.52-3.39-3.4,1.52-3.4,3.39-3.4,3.39,1.52,3.39,3.4Z"/>
  <g>
    <path class="cls-18" d="m402.26,494.64s-.3-18.08-1.09-29.74c-.32-4.77-.72-8.49-1.22-9.42-2.56-10.18.78-15.88-10.01-24.26-1.38-1.07-3.02-2.19-4.9-3.36-1.41-.88-2.95-1.79-4.69-2.74-.3,0-5.06-1.35-12.29-3.51-6.18-1.79-14.09-4.1-22.12-6.48-5.22-1.65-10.51-3.29-15.5-4.93-5.19-1.69-9.96-3.3-13.93-4.78-2.7-1.01-5.05-1.96-6.86-2.84h-.08c-.37-.15-.6-.3-.97-.44-.56-.32-1.02-.59-1.41-.84-1.37,11.42-6.16,21.74-13.23,29.92-7.66,8.87-18.03,15.17-29.79,17.59v49.05h138.15c-.07-1.05-.07-2.17-.07-3.21Z"/>
    <path class="cls-18" d="m199.87,401.21s-.01.01-.03.02c0,0-.07,0-.07.15-1.42.9-3.88,1.87-6.85,3.21h-.15c-.85.34-1.78.7-2.72,1.05-3.76,1.42-8.17,2.93-13,4.54-4.99,1.56-10.28,3.21-15.49,4.77-8.35,2.53-16.39,4.92-22.65,6.64-7.15,2.16-12,3.51-12.3,3.51-2.81,1.55-5.14,2.99-7.12,4.35-.87.6-1.68,1.18-2.41,1.75-10.75,8.37-7.5,14.08-10.06,24.26-.48.93-.87,4.66-1.19,9.42-.78,11.66-1.13,29.74-1.13,29.74,0,1.04-.07,2.16-.07,3.21h135.23v-49.79c-10.5-2.83-19.76-8.76-26.75-16.85-7.09-8.21-11.88-18.55-13.24-30Z"/>
  </g>
  <path class="cls-18" d="m165.7,284.93c0,2.6-2.1,4.7-4.69,4.7s-4.69-2.1-4.69-4.7,2.1-4.7,4.69-4.7,4.69,2.1,4.69,4.7Z"/>
  <path class="cls-8" d="m339.63,105.15c-23.67-24.2-58.46-35.96-58.46-35.96l9.65,8.74c-5.78-4.27-16.06-10.21-33.25-15.43-24.45-7.43-40.28.85-40.28.85,0,0,12.76-.42,19.02,4.41-6.17-2.56-16.81-3.45-34.56,3.61-34.79,13.84-34.16,38.63-58.38,46.23-24.77,7.81-31.96-2.2-31.96-2.2,0,0,10.74,17.54,29.84,17.58,3.09,0,3.39-.05,3.43-.08,0,0-23.82,19.86-33.27,1.62,0,0,8.61,20.24,26.36,21.49-.74,3.3-1.33,6.62-1.63,9.71-1.4,14.31,2.97,24.09,4.32,50.86,1.16,22.89,7.44,11.16,14.93,28.02,2.53,5.66,2.63,12.02,2.63,12.02,2.79.66,10.07-13.73,4.84-38.76-2.64-12.58,6.87-52.34,30.16-64.04-14.31,17.8-9.06,46.98-9.06,46.98,21.5-49.51,43.29-44.84,43.29-44.84-38.74,37.25-14.73,90.19-14.73,90.19-.93-44.71,38.29-74.63,50.42-82.81,1.13-.64,2.3-1.39,3.53-2.27,6.67-4.77,14.44-8.66,22.45-10.96,5.33,10.46,8.85,23.3,6.27,37.5,0,0,11.42-17.55,10.07-38.43,9.87,10.07,27.38,32.36,22.46,59.68,0,0,12.25-18.8,9.9-40.61,6.13,10.96,8.9,26.13,7.13,45.76-3.71,41.49,3.26,41.18,3.26,41.18,2.09,0-.15-11.03,6.8-18.66,6.95-7.6,17.57-33.24,17.57-58.83s-9.07-48.35-32.75-72.55Z"/>
  <path class="cls-8" d="m343.49,355.11c2.97,3.18,15.26,7.87,15.26,7.87,0,0-7.95-3.22-10.64-15.5-.98-4.47-1.46-7.01-1.56-8.81h-1.76c6.2-8.36,9.68-17.7,9.68-27.55,0-12.78-5.85-24.69-15.92-34.71.36,2.89.56,5.81.56,8.78,0,30.17-18.85,55.88-46.44,68.53,1.29-3.32,2.07-7.14,2.07-11.25,0-7.69-2.59-14.46-6.52-18.52-6.48-9.05-19.59-15.24-34.75-15.24-13.96,0-26.17,5.26-33.08,13.15-5.32,3.48-9.04,11.4-9.04,20.61,0,3.86.68,7.46,1.82,10.64-26.9-12.87-45.23-38.23-45.23-67.92,0-3.29.26-6.52.69-9.7-10.64,10.21-16.86,22.46-16.86,35.64,0,9.85,3.48,19.19,9.68,27.55h-.97c-.09,1.79-.57,4.34-1.56,8.81-2.67,12.28-10.63,15.5-10.63,15.5,0,0,12.29-4.69,15.26-7.87,1.44-1.54,5.23-5.76,6.41-7.09.04.04.07.06.12.1-.68,1.42-2.29,5.98-.02,14.77,2.96,11.49,15.15,19.25,15.15,19.25,0,0-7.31-9.15-5.28-19.16,0,0-.43,4.02,11.46,15.17,11.87,11.16,34.07,20.95,34.07,20.95,0,0-.46-6.95-.71-14.55,8.66,2.35,17.71,3.69,27.09,3.69.56,0,1.12-.01,1.67-.03.56.02,1.11.03,1.67.03,9.39,0,18.42-1.34,27.09-3.69-.25,7.6-.7,14.55-.7,14.55,0,0,22.2-9.79,34.07-20.95,11.88-11.15,11.45-15.17,11.45-15.17,2.02,10-5.29,19.16-5.29,19.16,0,0,12.19-7.75,15.16-19.25,2.28-8.81.64-13.37-.04-14.78.04-.02.08-.05.1-.11,1.16,1.29,4.99,5.57,6.43,7.11Zm-122.21-16.21c5.8-6.04,14.83-10.38,25.31-11.72,2.24-.28,4.55-.45,6.89-.45s4.65.16,6.88.45c9.94,1.27,18.51,5.26,24.33,10.82.2,1.44.33,2.94.33,4.47,0,4.68-.98,8.99-2.62,12.59-2.84,1.25-6.19,2.31-9.9,3.14.02-.11.05-.23.05-.35,0-3.47-8.73-6.28-19.51-6.28s-19.5,2.81-19.5,6.28c0,.05,0,.1.01.14-3.81-.9-7.23-2.05-10.06-3.4-1.51-3.51-2.42-7.65-2.42-12.12,0-1.21.06-2.4.19-3.57Z"/>
  <path class="cls-2" d="m161,289.73h0c-2.63,0-4.78-2.16-4.78-4.79h0c0-2.64,2.15-4.79,4.78-4.79h0c2.63,0,4.79,2.16,4.79,4.79h0c0,2.64-2.15,4.79-4.79,4.79Z"/>
  <path class="cls-2" d="m161,288.33s-3.39,15.99,7.67,14.05l1.1,5.2s-18.41,1.27-12.15-22.64c0,0,3.63-.32,3.39,3.4Z"/>
  <g>
    <g class="cls-4">
      <path class="cls-9" d="m240.64,257.77c0,17.54-19.29,34.92-41.49,34.92-30.93,0-35.12-15.48-35.12-33.02s-7.67-31.75,37.68-31.75,38.92,12.33,38.92,29.85"/>
    </g>
    <g class="cls-4">
      <path class="cls-9" d="m271.72,257.77c0,17.54,19.28,34.92,41.47,34.92,30.95,0,35.12-15.48,35.12-33.02s7.66-31.75-37.67-31.75-38.92,12.33-38.92,29.85"/>
    </g>
    <path class="cls-13" d="m183.1,288.18c8.08,2.48,38.45,5.99,51.01-17.49-25.31-13.06-50.82-6.01-65.63.56,4.32,13.22,11.61,16.02,14.61,16.94Z"/>
    <path class="cls-13" d="m328.89,288.18c2.81-.85,9.33-3.34,13.7-14.44-24.11-14.44-47.17-7.18-62.05,1.24,13.75,18.73,40.78,15.52,48.34,13.2Z"/>
    <path class="cls-21" d="m157.69,248.66c1.02,3.86,5.1,31.62,14.23,39.22,15,12.5,65.5,13.05,74.2-32.51,1.21-6.21,2.77-9.86,5.48-10.87,1.12-.4,2.74-.72,4.43-.73,1.66,0,3.28.32,4.39.73,2.71,1.01,4.31,4.66,5.5,10.87,8.69,45.56,59.19,45.01,74.22,32.51,9.13-7.6,13.21-35.36,14.22-39.22,1-3.87,5.17-6.19,6.36-7.37,1.19-1.17.3-12.07-.1-12.92-.57-1.17-11.88-2.85-26.63-4.23-12.44-1.17-32.41-.38-40.3.7-3.23.45-9.13,1.58-14.9,3.13-6.5,1.76-12.9,4.01-15.57,4.59-2.58.54-4.6.74-6.69.69v-.03c-.16.01-.32,0-.49.01-.16,0-.32,0-.48-.01v.03c-2.12.05-4.15-.15-6.72-.69-2.65-.59-9.04-2.83-15.58-4.59-5.77-1.55-11.67-2.68-14.89-3.13-7.86-1.09-27.86-1.88-40.31-.7-14.74,1.38-26.02,3.06-26.62,4.23-.39.85-1.3,11.76-.09,12.92,1.17,1.18,5.33,3.5,6.36,7.37Zm116.37-8.82c1.53-5.55,16.92-8.78,23.54-9.63,6.57-.85,16.36-1.43,27.35-.03,13.51,1.68,23.07,2.91,21.73,23.11-1.91,29.05-13.71,33.69-17.75,34.92-9.22,2.81-47.25,6.97-55.1-28.73-1.71-7.81-1.31-14.1.22-19.64Zm-86.95-9.66c10.99-1.4,20.75-.81,27.34.03,6.61.85,22.03,4.08,23.56,9.63,1.52,5.54,1.92,11.83.2,19.64-7.87,35.7-45.89,31.55-55.08,28.73-4.05-1.23-15.87-5.88-17.76-34.92-1.33-20.2,8.21-21.43,21.74-23.11Z"/>
  </g>
</svg>