<?xml version="1.0" encoding="UTF-8"?>
<svg xmlns="http://www.w3.org/2000/svg" xmlns:xlink="http://www.w3.org/1999/xlink" viewBox="0 0 499.31 499.31">
  <defs>
    <style>
      .cls-1 {
        fill: #fff;
      }

      .cls-2 {
        fill: #e96332;
      }

      .cls-3 {
        fill: #191009;
      }

      .cls-4 {
        clip-path: url(#clippath-2);
      }

      .cls-5 {
        isolation: isolate;
      }

      .cls-6 {
        fill: #f25a28;
      }

      .cls-7 {
        clip-path: url(#clippath-1);
      }

      .cls-8 {
        clip-path: url(#clippath-4);
      }

      .cls-9 {
        fill: #e6e6e6;
      }

      .cls-10 {
        fill: #251f21;
      }

      .cls-11 {
        fill: #0a6e90;
      }

      .cls-12 {
        clip-path: url(#clippath);
      }

      .cls-13 {
        fill: none;
      }

      .cls-14 {
        fill: #a84720;
      }

      .cls-15 {
        clip-path: url(#clippath-3);
      }

      .cls-16 {
        fill: #f6f3cf;
      }

      .cls-17 {
        mix-blend-mode: screen;
        opacity: .5;
      }

      .cls-18 {
        fill: #f5fefb;
      }

      .cls-19 {
        fill: #351905;
      }

      .cls-20 {
        fill: #07171b;
      }
    </style>
    <clipPath id="clippath">
      <path class="cls-13" d="m499.31,249.65C499.31,111.78,387.53,0,249.65,0S0,111.78,0,249.65s111.77,249.66,249.65,249.66,249.66-111.78,249.66-249.66Z"/>
    </clipPath>
    <clipPath id="clippath-1">
      <rect class="cls-13" x="168.11" y="247.71" width="32.44" height="81.68"/>
    </clipPath>
    <clipPath id="clippath-2">
      <rect class="cls-13" x="285.09" y="241.84" width="33.48" height="86.37"/>
    </clipPath>
    <clipPath id="clippath-3">
      <rect class="cls-13" x="154.89" y="252.79" width="27.55" height="74.78"/>
    </clipPath>
    <clipPath id="clippath-4">
      <rect class="cls-13" x="266.53" y="243.21" width="32.04" height="79.14"/>
    </clipPath>
  </defs>
  <g class="cls-5">
    <g id="Calque_1" data-name="Calque 1">
      <g id="avatar_animals" data-name="avatar animals">
        <path class="cls-11" d="m499.31,249.65C499.31,111.78,387.53,0,249.65,0S0,111.78,0,249.65s111.77,249.66,249.65,249.66,249.66-111.78,249.66-249.66Z"/>
        <g class="cls-12">
          <g>
            <g>
              <path class="cls-6" d="m258.06,342.01c-64.38,0-116.58,70.42-116.58,157.3h233.17c0-86.87-52.2-157.3-116.59-157.3Z"/>
              <path class="cls-18" d="m226.97,386.95c9.27,19.34,37.32,40.86,60.85,0-1.43-17.61-18.7-22.04-29.79-22.04-21.38,0-31.06,22.04-31.06,22.04Z"/>
              <path class="cls-16" d="m401.21,329.34c-1.74-1.26-4.01-2.49-6.68-3.61.71.44,1.37.83,1.99,1.19,1.73.76,3.3,1.57,4.69,2.42Z"/>
              <path class="cls-16" d="m401.21,329.34c-1.39-.85-2.97-1.66-4.69-2.42,2.83,1.63,4.69,2.42,4.69,2.42Z"/>
              <path class="cls-16" d="m121.39,325.73c-2.68,1.12-4.94,2.35-6.69,3.61,1.39-.85,2.97-1.66,4.69-2.42.62-.36,1.28-.74,2-1.19Z"/>
              <path class="cls-16" d="m114.7,329.34s1.86-.79,4.69-2.42c-1.73.76-3.3,1.57-4.69,2.42Z"/>
              <g>
                <path class="cls-10" d="m300.79,199.37c22.11-89.65,95.03-121.03,95.03-121.03,0,0,52.12,136.06-47.51,168.5l-47.51-47.47Z"/>
                <path class="cls-6" d="m311.43,207.62c28.48-85.16,74.09-100.01,74.09-100.01,0,0,39.42,81.32-47.18,130.92l-26.91-30.91Z"/>
                <path class="cls-10" d="m215.01,199.37c-22.11-89.65-95.03-121.03-95.03-121.03,0,0-52.12,136.06,47.5,168.5l47.52-47.47Z"/>
                <path class="cls-6" d="m204.37,207.62c-28.48-85.16-74.09-100.01-74.09-100.01,0,0-39.41,81.32,47.19,130.92l26.91-30.91Z"/>
              </g>
              <g>
                <path class="cls-18" d="m287.82,386.95c-2.79-6.9-7.94-12.51-14.4-16.09,5.33-8.64,23.11-31.58,63.09-44.92,29.53-9.85,54.88-3.64,64.64,3.4,0,0-29.82,38.03-113.33,57.61Z"/>
                <g>
                  <path class="cls-18" d="m227.98,386.95c2.8-6.9,7.94-12.51,14.4-16.09-5.32-8.64-23.11-31.58-63.09-44.92-29.54-9.85-54.89-3.64-64.65,3.4,0,0,29.82,38.03,113.33,57.61Z"/>
                  <g>
                    <path class="cls-6" d="m367.27,290.07c.06-1.41.22-2.79.22-4.22,0-60.51-48.99-109.57-109.48-109.69h0s-.07,0-.1,0c-.04,0-.07,0-.11,0h0c-60.49.12-109.48,49.18-109.48,109.69,0,1.43.16,2.81.22,4.22-5.08,20.71-21.15,32.24-29.2,36.85,12.52-5.46,33.48-7.86,59.96-.99,30.72,7.97,57.76,33.7,63.09,44.92,4.62-2.56,9.87-4.15,15.52-4.17,5.65.02,10.9,1.61,15.51,4.17,5.33-11.22,32.37-36.95,63.09-44.92,26.48-6.87,47.44-4.47,59.95.98-8.04-4.62-24.1-16.15-29.19-36.85Z"/>
                    <path class="cls-6" d="m396.46,326.93c2.84,1.63,4.7,2.41,4.7,2.41-1.4-.85-2.97-1.66-4.7-2.41Z"/>
                    <path class="cls-6" d="m119.33,326.93c-1.72.75-3.29,1.56-4.69,2.41,0,0,1.85-.78,4.69-2.41Z"/>
                  </g>
                </g>
              </g>
              <path class="cls-13" d="m179.34,325.94c10.55,3.52,19.51,7.71,27.15,12.12.02-.14.04-.27.07-.41-8.34-4.98-17.6-9.22-27.22-11.72Z"/>
              <path class="cls-2" d="m257.85,176.17h0s.07,0,.11,0h-.11Z"/>
              <path class="cls-20" d="m242.39,370.77s0,0,0,0c.01.02.03.05.04.08,0-.03-.03-.06-.04-.09Z"/>
              <path class="cls-14" d="m258.06,176.17h-.1s.07,0,.1,0h0Z"/>
              <path class="cls-14" d="m258.06,271.98v-95.81s-.07,0-.1,0c-.04,0-.07,0-.11,0v95.83c.07,0,.14-.02.21-.02Z"/>
              <path class="cls-14" d="m257.85,366.68s.07,0,.11,0c.03,0,.07,0,.1,0v-94.7c-.07,0-.14.02-.21.02v94.69Z"/>
              <path class="cls-14" d="m242.39,370.77s.03.06.04.09c4.6-2.55,9.8-4.12,15.42-4.16h0c-5.63-.01-10.85,1.55-15.46,4.08Z"/>
              <path class="cls-14" d="m257.85,366.68h0s.07,0,.11,0c-.04,0-.07,0-.11,0Z"/>
              <path class="cls-3" d="m266.75,349.23c10.89,0,14.3,7.02,7.57,15.59l-4.3,5.49c-6.73,8.57-17.74,8.57-24.46,0l-4.31-5.49c-6.72-8.57-3.31-15.59,7.58-15.59h17.92Z"/>
              <path class="cls-3" d="m224.39,385.2s18.88,5.92,32.97-8.45c12.4,9.86,20.29,12.76,33.82,4.83-13.81,15.18-29.42,10.46-34.21,9.34-10.71,2.82-29.76,2.18-32.57-5.71Z"/>
              <g>
                <g>
                  <path class="cls-1" d="m194.87,269.48s36.41-10.56,35.59,26.47c0,0-35.59,12.92-35.59-26.47"/>
                  <path class="cls-3" d="m223.83,280.96c0,4.88-3.95,8.83-8.83,8.83s-8.82-3.95-8.82-8.83,3.95-8.83,8.82-8.83,8.83,3.96,8.83,8.83Z"/>
                  <path class="cls-1" d="m220.88,277.62c0,1.15-.93,2.07-2.07,2.07s-2.07-.93-2.07-2.07.92-2.07,2.07-2.07,2.07.93,2.07,2.07Z"/>
                </g>
                <g>
                  <path class="cls-1" d="m319.92,269.48s-36.41-10.56-35.59,26.47c0,0,35.59,12.92,35.59-26.47"/>
                  <path class="cls-3" d="m290.17,280.96c0,4.88,3.95,8.83,8.83,8.83s8.83-3.95,8.83-8.83-3.95-8.83-8.83-8.83-8.83,3.96-8.83,8.83Z"/>
                  <path class="cls-1" d="m292.79,276.81c0,1.15.93,2.07,2.07,2.07s2.07-.93,2.07-2.07-.92-2.07-2.07-2.07-2.07.93-2.07,2.07Z"/>
                </g>
              </g>
              <path d="m301.24,406.76c-6.06-2.01-36.31,15.37-36.31,15.37-1.84-1.97-4.51-3.22-7.49-3.22s-5.64,1.25-7.49,3.22c0,0-30.29-18.34-36.05-14.96-5.76,3.38-5.97,39.23,0,42.76,5.96,3.53,36.61-14.4,36.61-14.4,1.8,1.64,4.23,2.66,6.92,2.66s5.12-1.02,6.92-2.66c0,0,31.67,18.6,36.61,14.4,4.95-4.21,6.34-41.17.26-43.18Z"/>
            </g>
            <g>
              <g class="cls-17">
                <g class="cls-7">
                  <polygon class="cls-9" points="168.11 250.96 190.91 328.99 200.55 329.39 175.93 247.71 168.11 250.96"/>
                </g>
              </g>
              <g class="cls-17">
                <g class="cls-4">
                  <polygon class="cls-9" points="285.09 242.63 309.46 327.69 318.57 328.21 293.95 241.84 285.09 242.63"/>
                </g>
              </g>
              <g class="cls-17">
                <g class="cls-15">
                  <path class="cls-9" d="m159.91,252.79h-.02c.19,3.56-2.35,6.09-4.03,9.37-.27.53-.61.93-.97,1.26v4.28l14.9,53.48c3.17,1.46,3.42,2.64,6.64,4.04,1.97.86,4,1.6,6,2.35l-22.54-74.78Z"/>
                </g>
              </g>
              <g class="cls-17">
                <g class="cls-8">
                  <polygon class="cls-9" points="266.53 246.15 289.78 317.66 298.57 322.35 275.71 243.21 266.53 246.15"/>
                </g>
              </g>
              <path class="cls-19" d="m368.16,273.4c-.75-.97-2.05-.76-2.7-3.13-.64-2.37-6.69-18.47-13.39-22.15-6.69-3.67-19.51-9.93-50.62-12.1-24.06-.6-38.62-1.1-42.77-1.25v-.04s-.21,0-.61.02c-.41-.02-.62-.02-.62-.02v.04c-4.15.15-18.71.66-42.76,1.25-31.11,2.16-43.93,8.43-50.62,12.1-6.7,3.67-12.75,19.77-13.39,22.15-.65,2.37-1.95,2.16-2.7,3.13-.76.97.11,6.69,2.48,10.37,2.59,20.63,11.23,32.4,16.63,38.67,5.4,6.27,20.31,9.29,30.68,8.86,22.9-3.89,26.79-10.8,36.73-20.53,9.94-9.72,17.79-36.29,18.94-39.32.87-2.29,3.44-3.09,4.64-3.35,1.18.25,3.75,1.05,4.63,3.35,1.16,3.03,9.01,29.6,18.94,39.32,9.94,9.72,13.83,16.64,36.73,20.53,10.37.43,25.28-2.59,30.68-8.86,5.4-6.26,14.03-18.04,16.63-38.67,2.38-3.68,3.24-9.4,2.48-10.37m-122.21,3.89c-1.74,7.78-7.79,23.55-14.7,31.11-6.91,7.56-11.42,14.36-28.88,18.15-10,1.29-24.92.21-31.82-7.99-6.92-8.21-13.82-21.23-13.82-33.62s.86-16.93.86-16.93c0,0,4.1-14.04,14.9-18.58,10.8-4.54,28.09-7.56,46.88-6.27,18.79,1.3,25.06,4.33,26.58,8.43,1.5,4.11,1.73,17.93,0,25.71m99.64,41.27c-6.91,8.21-21.82,9.29-31.83,7.99-17.46-3.79-21.96-10.59-28.88-18.15-6.91-7.56-12.96-23.33-14.7-31.11-1.73-7.77-1.51-21.6,0-25.71,1.51-4.1,7.78-7.13,26.57-8.43,18.8-1.29,36.09,1.73,46.88,6.27,10.8,4.54,14.9,18.58,14.9,18.58,0,0,.87,4.54.87,16.93s-6.92,25.41-13.83,33.62"/>
            </g>
          </g>
        </g>
      </g>
    </g>
  </g>
</svg>